<svg width="1920" height="577" viewBox="0 0 1920 577" fill="none" xmlns="http://www.w3.org/2000/svg">
<g clip-path="url(#clip0_368_130)">
<path d="M1920 -0.424316H0V576.984H1920V-0.424316Z" fill="#F0F0F0"/>
<mask id="mask0_368_130" style="mask-type:luminance" maskUnits="userSpaceOnUse" x="1128" y="66" width="698" height="84">
<path d="M1826 66.082H1128V149.082H1826V66.082Z" fill="white"/>
<path d="M1175.27 146.4H1172.53C1134.73 146.4 1130.68 130.589 1130.68 120.961V120.049H1156.82C1157.13 123.191 1158.44 129.88 1173.44 129.88H1174.05C1188.75 129.88 1190.67 125.725 1190.67 121.975C1190.67 118.022 1188.34 115.286 1175.88 114.982L1165.54 114.678C1139.19 113.867 1131.59 103.834 1131.59 92.1791V91.267C1131.59 78.8013 1138.88 68.6666 1171.01 68.6666H1174.86C1209.73 68.6666 1214.89 81.0309 1214.89 91.571V92.3818H1189.15C1188.65 89.24 1186.72 84.6794 1173.24 84.6794H1172.33C1159.46 84.6794 1156.82 87.2131 1156.82 90.8616C1156.82 94.3074 1159.36 97.0437 1170.81 97.3478L1181.45 97.6518C1209.52 98.4626 1216.21 107.28 1216.21 120.049V121.266C1216.21 132.92 1210.94 146.4 1175.27 146.4ZM1274.49 68.4639H1279.05C1316.75 68.4639 1325.97 89.6454 1325.97 105.658V108.699C1325.97 124.509 1316.85 146.298 1279.05 146.298H1274.49C1236.79 146.298 1227.57 124.509 1227.57 108.699V105.658C1227.57 89.6454 1236.79 68.4639 1274.49 68.4639ZM1300.74 107.786V106.469C1300.74 98.2599 1296.89 87.3144 1276.82 87.3144C1256.65 87.3144 1252.8 98.2599 1252.8 106.469V107.786C1252.8 115.995 1257.06 127.245 1276.82 127.245C1296.89 127.245 1300.74 115.995 1300.74 107.786ZM1364.59 145.082H1340.47V69.6801H1364.59V99.7801L1397.73 69.6801H1427.12L1388.92 103.935L1429.25 145.082H1398.24L1364.59 110.523V145.082ZM1475.4 68.4639H1479.96C1517.66 68.4639 1526.89 89.6454 1526.89 105.658V108.699C1526.89 124.509 1517.76 146.298 1479.96 146.298H1475.4C1437.7 146.298 1428.48 124.509 1428.48 108.699V105.658C1428.48 89.6454 1437.7 68.4639 1475.4 68.4639ZM1501.65 107.786V106.469C1501.65 98.2599 1497.8 87.3144 1477.73 87.3144C1457.56 87.3144 1453.71 98.2599 1453.71 106.469V107.786C1453.71 115.995 1457.97 127.245 1477.73 127.245C1497.8 127.245 1501.65 115.995 1501.65 107.786ZM1541.38 69.6801H1565.61V125.421H1611.21V145.082H1541.38V69.6801ZM1666.12 68.4639H1670.68C1708.38 68.4639 1717.6 89.6454 1717.6 105.658V108.699C1717.6 124.509 1708.48 146.298 1670.68 146.298H1666.12C1628.42 146.298 1619.2 124.509 1619.2 108.699V105.658C1619.2 89.6454 1628.42 68.4639 1666.12 68.4639ZM1692.37 107.786V106.469C1692.37 98.2599 1688.52 87.3144 1668.45 87.3144C1648.28 87.3144 1644.43 98.2599 1644.43 106.469V107.786C1644.43 115.995 1648.69 127.245 1668.45 127.245C1688.52 127.245 1692.37 115.995 1692.37 107.786ZM1788.01 145.082H1757.2L1721.22 69.6801H1749.29L1773.01 123.394L1796.72 69.6801H1822.46L1788.01 145.082Z" fill="black"/>
</mask>
<g mask="url(#mask0_368_130)">
<path d="M1130.68 120.049V118.049H1128.68V120.049H1130.68ZM1156.82 120.049L1158.81 119.857L1158.64 118.049H1156.82V120.049ZM1175.88 114.982L1175.82 116.981H1175.83L1175.88 114.982ZM1214.89 92.3818V94.3818H1216.89V92.3818H1214.89ZM1189.15 92.3818L1187.18 92.7003L1187.45 94.3818H1189.15V92.3818ZM1170.81 97.3478L1170.87 95.3486L1170.86 95.3485L1170.81 97.3478ZM1175.27 144.4H1172.53V148.4H1175.27V144.4ZM1172.53 144.4C1153.85 144.4 1143.97 140.483 1138.76 135.803C1133.62 131.184 1132.68 125.496 1132.68 120.961H1128.68C1128.68 126.055 1129.76 133.086 1136.09 138.779C1142.36 144.411 1153.41 148.4 1172.53 148.4V144.4ZM1132.68 120.961V120.049H1128.68V120.961H1132.68ZM1130.68 122.049H1156.82V118.049H1130.68V122.049ZM1154.83 120.242C1155 121.972 1155.48 125.044 1158.27 127.614C1161.03 130.156 1165.69 131.88 1173.44 131.88V127.88C1166.2 127.88 1162.7 126.26 1160.98 124.672C1159.28 123.112 1158.95 121.269 1158.81 119.857L1154.83 120.242ZM1173.44 131.88H1174.05V127.88H1173.44V131.88ZM1174.05 131.88C1181.49 131.88 1186.14 130.846 1188.96 129.01C1190.42 128.06 1191.39 126.899 1191.97 125.609C1192.53 124.345 1192.67 123.075 1192.67 121.975H1188.67C1188.67 122.75 1188.57 123.405 1188.32 123.975C1188.07 124.519 1187.64 125.1 1186.78 125.657C1184.97 126.836 1181.31 127.88 1174.05 127.88V131.88ZM1192.67 121.975C1192.67 120.8 1192.5 119.546 1191.9 118.355C1191.28 117.139 1190.3 116.145 1188.94 115.371C1186.33 113.893 1182.2 113.136 1175.92 112.983L1175.83 116.981C1182.02 117.132 1185.28 117.896 1186.96 118.849C1187.74 119.292 1188.12 119.742 1188.33 120.16C1188.55 120.603 1188.67 121.174 1188.67 121.975H1192.67ZM1175.93 112.983L1165.6 112.679L1165.48 116.677L1175.82 116.981L1175.93 112.983ZM1165.6 112.679C1152.62 112.279 1144.63 109.61 1139.91 105.92C1135.3 102.31 1133.59 97.5281 1133.59 92.1791H1129.59C1129.59 98.485 1131.67 104.547 1137.45 109.07C1143.12 113.513 1152.11 116.266 1165.48 116.677L1165.6 112.679ZM1133.59 92.1791V91.267H1129.59V92.1791H1133.59ZM1133.59 91.267C1133.59 85.4745 1135.25 80.5407 1140.4 76.9302C1145.73 73.1963 1155.08 70.6666 1171.01 70.6666V66.6666C1154.82 66.6666 1144.46 69.2043 1138.1 73.6542C1131.58 78.2275 1129.59 84.5938 1129.59 91.267H1133.59ZM1171.01 70.6666H1174.86V66.6666H1171.01V70.6666ZM1174.86 70.6666C1192.14 70.6666 1201.6 73.7447 1206.72 77.7431C1211.71 81.635 1212.89 86.6518 1212.89 91.571H1216.89C1216.89 85.9502 1215.5 79.5148 1209.18 74.5895C1203.01 69.7707 1192.45 66.6666 1174.86 66.6666V70.6666ZM1212.89 91.571V92.3818H1216.89V91.571H1212.89ZM1214.89 90.3818H1189.15V94.3818H1214.89V90.3818ZM1191.13 92.0633C1190.82 90.1876 1190.04 87.6597 1187.19 85.7044C1184.48 83.8365 1180.15 82.6794 1173.24 82.6794V86.6794C1179.82 86.6794 1183.19 87.8026 1184.93 89.0005C1186.54 90.1109 1186.97 91.4343 1187.18 92.7003L1191.13 92.0633ZM1173.24 82.6794H1172.33V86.6794H1173.24V82.6794ZM1172.33 82.6794C1165.86 82.6794 1161.59 83.3009 1158.88 84.5996C1157.48 85.2749 1156.41 86.173 1155.72 87.3312C1155.03 88.4817 1154.82 89.71 1154.82 90.8616H1158.82C1158.82 90.189 1158.94 89.7324 1159.15 89.3817C1159.36 89.0386 1159.75 88.6192 1160.62 88.2051C1162.45 87.3248 1165.93 86.6794 1172.33 86.6794V82.6794ZM1154.82 90.8616C1154.82 91.9702 1155.03 93.1445 1155.65 94.2611C1156.28 95.3841 1157.25 96.3046 1158.55 97.0291C1161.05 98.4283 1164.96 99.1932 1170.76 99.3471L1170.86 95.3485C1165.21 95.1984 1162.12 94.443 1160.5 93.5366C1159.73 93.1083 1159.35 92.6796 1159.14 92.3109C1158.93 91.9358 1158.82 91.4758 1158.82 90.8616H1154.82ZM1170.75 99.347L1181.39 99.651L1181.51 95.6527L1170.87 95.3486L1170.75 99.347ZM1181.39 99.651C1195.31 100.053 1203.48 102.444 1208.16 105.964C1212.66 109.358 1214.21 114.041 1214.21 120.049H1218.21C1218.21 113.288 1216.42 107.177 1210.56 102.768C1204.87 98.4839 1195.66 96.0614 1181.51 95.6527L1181.39 99.651ZM1214.21 120.049V121.266H1218.21V120.049H1214.21ZM1214.21 121.266C1214.21 126.79 1212.97 132.375 1207.84 136.668C1202.59 141.049 1192.93 144.4 1175.27 144.4V148.4C1193.28 148.4 1204.09 145.01 1210.4 139.738C1216.81 134.378 1218.21 127.396 1218.21 121.266H1214.21ZM1274.49 70.4639H1279.05V66.4639H1274.49V70.4639ZM1279.05 70.4639C1297.53 70.4639 1308.67 75.6444 1315.21 82.4427C1321.77 89.2654 1323.97 98.0081 1323.97 105.658H1327.97C1327.97 97.2956 1325.57 87.4411 1318.09 79.6699C1310.59 71.8742 1298.28 66.4639 1279.05 66.4639V70.4639ZM1323.97 105.658V108.699H1327.97V105.658H1323.97ZM1323.97 108.699C1323.97 116.25 1321.79 125.102 1315.23 132.054C1308.7 138.975 1297.56 144.298 1279.05 144.298V148.298C1298.34 148.298 1310.66 142.727 1318.14 134.8C1325.59 126.905 1327.97 116.957 1327.97 108.699H1323.97ZM1279.05 144.298H1274.49V148.298H1279.05V144.298ZM1274.49 144.298C1256.03 144.298 1244.89 138.976 1238.34 132.053C1231.77 125.099 1229.57 116.246 1229.57 108.699H1225.57C1225.57 116.961 1227.97 126.908 1235.44 134.801C1242.93 142.726 1255.25 148.298 1274.49 148.298V144.298ZM1229.57 108.699V105.658H1225.57V108.699H1229.57ZM1229.57 105.658C1229.57 98.0081 1231.77 89.2654 1238.33 82.4427C1244.87 75.6444 1256.01 70.4639 1274.49 70.4639V66.4639C1255.26 66.4639 1242.95 71.8742 1235.45 79.6699C1227.97 87.4411 1225.57 97.2956 1225.57 105.658H1229.57ZM1302.74 107.786V106.469H1298.74V107.786H1302.74ZM1302.74 106.469C1302.74 102.089 1301.71 96.7274 1297.77 92.4572C1293.81 88.1558 1287.21 85.3144 1276.82 85.3144V89.3144C1286.5 89.3144 1291.86 91.9459 1294.83 95.1695C1297.84 98.4242 1298.74 102.64 1298.74 106.469H1302.74ZM1276.82 85.3144C1266.38 85.3144 1259.76 88.1541 1255.78 92.4545C1251.83 96.7253 1250.8 102.088 1250.8 106.469H1254.8C1254.8 102.641 1255.7 98.4263 1258.72 95.1721C1261.7 91.9476 1267.09 89.3144 1276.82 89.3144V85.3144ZM1250.8 106.469V107.786H1254.8V106.469H1250.8ZM1250.8 107.786C1250.8 112.201 1251.94 117.621 1255.93 121.949C1259.95 126.313 1266.56 129.245 1276.82 129.245V125.245C1267.32 125.245 1261.92 122.553 1258.87 119.239C1255.79 115.89 1254.8 111.58 1254.8 107.786H1250.8ZM1276.82 129.245C1287.23 129.245 1293.82 126.318 1297.79 121.936C1301.72 117.593 1302.74 112.165 1302.74 107.786H1298.74C1298.74 111.617 1297.84 115.919 1294.82 119.253C1291.84 122.547 1286.48 125.245 1276.82 125.245V129.245ZM1364.59 145.082V147.082H1366.59V145.082H1364.59ZM1340.47 145.082H1338.47V147.082H1340.47V145.082ZM1340.47 69.6801V67.6801H1338.47V69.6801H1340.47ZM1364.59 69.6801H1366.59V67.6801H1364.59V69.6801ZM1364.59 99.7801H1362.59V104.298L1365.94 101.261L1364.59 99.7801ZM1397.73 69.6801V67.6801H1396.96L1396.39 68.1996L1397.73 69.6801ZM1427.12 69.6801L1428.46 71.1692L1432.35 67.6801H1427.12V69.6801ZM1388.92 103.935L1387.58 102.446L1386.02 103.842L1387.49 105.335L1388.92 103.935ZM1429.25 145.082V147.082H1434.01L1430.68 143.682L1429.25 145.082ZM1398.24 145.082L1396.81 146.477L1397.4 147.082H1398.24V145.082ZM1364.59 110.523L1366.03 109.128L1362.59 105.602V110.523H1364.59ZM1364.59 143.082H1340.47V147.082H1364.59V143.082ZM1342.47 145.082V69.6801H1338.47V145.082H1342.47ZM1340.47 71.6801H1364.59V67.6801H1340.47V71.6801ZM1362.59 69.6801V99.7801H1366.59V69.6801H1362.59ZM1365.94 101.261L1399.08 71.1606L1396.39 68.1996L1363.25 98.2996L1365.94 101.261ZM1397.73 71.6801H1427.12V67.6801H1397.73V71.6801ZM1425.79 68.191L1387.58 102.446L1390.25 105.424L1428.46 71.1692L1425.79 68.191ZM1387.49 105.335L1427.82 146.482L1430.68 143.682L1390.34 102.535L1387.49 105.335ZM1429.25 143.082H1398.24V147.082H1429.25V143.082ZM1399.67 143.687L1366.03 109.128L1363.16 111.918L1396.81 146.477L1399.67 143.687ZM1362.59 110.523V145.082H1366.59V110.523H1362.59ZM1475.4 70.4639H1479.96V66.4639H1475.4V70.4639ZM1479.96 70.4639C1498.44 70.4639 1509.58 75.6444 1516.12 82.4427C1522.68 89.2654 1524.89 98.0081 1524.89 105.658H1528.89C1528.89 97.2956 1526.48 87.4411 1519 79.6699C1511.51 71.8742 1499.19 66.4639 1479.96 66.4639V70.4639ZM1524.89 105.658V108.699H1528.89V105.658H1524.89ZM1524.89 108.699C1524.89 116.25 1522.71 125.102 1516.15 132.054C1509.61 138.975 1498.47 144.298 1479.96 144.298V148.298C1499.25 148.298 1511.57 142.727 1519.05 134.8C1526.51 126.905 1528.89 116.957 1528.89 108.699H1524.89ZM1479.96 144.298H1475.4V148.298H1479.96V144.298ZM1475.4 144.298C1456.94 144.298 1445.8 138.976 1439.26 132.053C1432.68 125.099 1430.48 116.246 1430.48 108.699H1426.48C1426.48 116.961 1428.89 126.908 1436.35 134.801C1443.84 142.726 1456.16 148.298 1475.4 148.298V144.298ZM1430.48 108.699V105.658H1426.48V108.699H1430.48ZM1430.48 105.658C1430.48 98.0081 1432.68 89.2654 1439.24 82.4427C1445.78 75.6444 1456.93 70.4639 1475.4 70.4639V66.4639C1456.18 66.4639 1443.86 71.8742 1436.36 79.6699C1428.89 87.4411 1426.48 97.2956 1426.48 105.658H1430.48ZM1503.65 107.786V106.469H1499.65V107.786H1503.65ZM1503.65 106.469C1503.65 102.089 1502.63 96.7274 1498.69 92.4572C1494.72 88.1558 1488.12 85.3144 1477.73 85.3144V89.3144C1487.41 89.3144 1492.77 91.9459 1495.75 95.1695C1498.75 98.4242 1499.65 102.64 1499.65 106.469H1503.65ZM1477.73 85.3144C1467.3 85.3144 1460.67 88.1541 1456.69 92.4545C1452.74 96.7253 1451.71 102.088 1451.71 106.469H1455.71C1455.71 102.641 1456.61 98.4263 1459.63 95.1721C1462.61 91.9476 1468 89.3144 1477.73 89.3144V85.3144ZM1451.71 106.469V107.786H1455.71V106.469H1451.71ZM1451.71 107.786C1451.71 112.201 1452.86 117.621 1456.84 121.949C1460.86 126.313 1467.47 129.245 1477.73 129.245V125.245C1468.23 125.245 1462.83 122.553 1459.78 119.239C1456.7 115.89 1455.71 111.58 1455.71 107.786H1451.71ZM1477.73 129.245C1488.14 129.245 1494.74 126.318 1498.7 121.936C1502.63 117.593 1503.65 112.165 1503.65 107.786H1499.65C1499.65 111.617 1498.75 115.919 1495.73 119.253C1492.75 122.547 1487.39 125.245 1477.73 125.245V129.245ZM1541.38 69.6801V67.6801H1539.38V69.6801H1541.38ZM1565.61 69.6801H1567.61V67.6801H1565.61V69.6801ZM1565.61 125.421H1563.61V127.421H1565.61V125.421ZM1611.21 125.421H1613.21V123.421H1611.21V125.421ZM1611.21 145.082V147.082H1613.21V145.082H1611.21ZM1541.38 145.082H1539.38V147.082H1541.38V145.082ZM1541.38 71.6801H1565.61V67.6801H1541.38V71.6801ZM1563.61 69.6801V125.421H1567.61V69.6801H1563.61ZM1565.61 127.421H1611.21V123.421H1565.61V127.421ZM1609.21 125.421V145.082H1613.21V125.421H1609.21ZM1611.21 143.082H1541.38V147.082H1611.21V143.082ZM1543.38 145.082V69.6801H1539.38V145.082H1543.38ZM1666.12 70.4639H1670.68V66.4639H1666.12V70.4639ZM1670.68 70.4639C1689.16 70.4639 1700.3 75.6444 1706.84 82.4427C1713.4 89.2654 1715.6 98.0081 1715.6 105.658H1719.6C1719.6 97.2956 1717.2 87.4411 1709.72 79.6699C1702.22 71.8742 1689.91 66.4639 1670.68 66.4639V70.4639ZM1715.6 105.658V108.699H1719.6V105.658H1715.6ZM1715.6 108.699C1715.6 116.25 1713.42 125.102 1706.86 132.054C1700.33 138.975 1689.19 144.298 1670.68 144.298V148.298C1689.97 148.298 1702.29 142.727 1709.77 134.8C1717.22 126.905 1719.6 116.957 1719.6 108.699H1715.6ZM1670.68 144.298H1666.12V148.298H1670.68V144.298ZM1666.12 144.298C1647.66 144.298 1636.52 138.976 1629.97 132.053C1623.4 125.099 1621.2 116.246 1621.2 108.699H1617.2C1617.2 116.961 1619.6 126.908 1627.07 134.801C1634.56 142.726 1646.88 148.298 1666.12 148.298V144.298ZM1621.2 108.699V105.658H1617.2V108.699H1621.2ZM1621.2 105.658C1621.2 98.0081 1623.4 89.2654 1629.96 82.4427C1636.5 75.6444 1647.65 70.4639 1666.12 70.4639V66.4639C1646.89 66.4639 1634.58 71.8742 1627.08 79.6699C1619.6 87.4411 1617.2 97.2956 1617.2 105.658H1621.2ZM1694.37 107.786V106.469H1690.37V107.786H1694.37ZM1694.37 106.469C1694.37 102.089 1693.34 96.7274 1689.4 92.4572C1685.44 88.1558 1678.84 85.3144 1668.45 85.3144V89.3144C1678.13 89.3144 1683.49 91.9459 1686.46 95.1695C1689.47 98.4242 1690.37 102.64 1690.37 106.469H1694.37ZM1668.45 85.3144C1658.01 85.3144 1651.39 88.1541 1647.41 92.4545C1643.46 96.7253 1642.43 102.088 1642.43 106.469H1646.43C1646.43 102.641 1647.33 98.4263 1650.35 95.1721C1653.33 91.9476 1658.72 89.3144 1668.45 89.3144V85.3144ZM1642.43 106.469V107.786H1646.43V106.469H1642.43ZM1642.43 107.786C1642.43 112.201 1643.57 117.621 1647.56 121.949C1651.58 126.313 1658.19 129.245 1668.45 129.245V125.245C1658.95 125.245 1653.55 122.553 1650.5 119.239C1647.42 115.89 1646.43 111.58 1646.43 107.786H1642.43ZM1668.45 129.245C1678.86 129.245 1685.46 126.318 1689.42 121.936C1693.35 117.593 1694.37 112.165 1694.37 107.786H1690.37C1690.37 111.617 1689.47 115.919 1686.45 119.253C1683.47 122.547 1678.11 125.245 1668.45 125.245V129.245ZM1788.01 145.082V147.082H1789.29L1789.83 145.913L1788.01 145.082ZM1757.2 145.082L1755.39 145.943L1755.93 147.082H1757.2V145.082ZM1721.22 69.6801V67.6801H1718.05L1719.41 70.5414L1721.22 69.6801ZM1749.29 69.6801L1751.12 68.8723L1750.59 67.6801H1749.29V69.6801ZM1773.01 123.394L1771.18 124.202L1773.01 128.346L1774.84 124.202L1773.01 123.394ZM1796.72 69.6801V67.6801H1795.42L1794.89 68.8723L1796.72 69.6801ZM1822.46 69.6801L1824.28 70.5114L1825.58 67.6801H1822.46V69.6801ZM1788.01 143.082H1757.2V147.082H1788.01V143.082ZM1759 144.221L1723.02 68.8188L1719.41 70.5414L1755.39 145.943L1759 144.221ZM1721.22 71.6801H1749.29V67.6801H1721.22V71.6801ZM1747.46 70.4879L1771.18 124.202L1774.84 122.586L1751.12 68.8723L1747.46 70.4879ZM1774.84 124.202L1798.55 70.4879L1794.89 68.8723L1771.18 122.586L1774.84 124.202ZM1796.72 71.6801H1822.46V67.6801H1796.72V71.6801ZM1820.64 68.8488L1786.19 144.251L1789.83 145.913L1824.28 70.5114L1820.64 68.8488Z" fill="white"/>
</g>
<mask id="mask1_368_130" style="mask-type:luminance" maskUnits="userSpaceOnUse" x="-302" y="66" width="699" height="84">
<path d="M396.902 66.082H-301.098V149.082H396.902V66.082Z" fill="white"/>
<path d="M-253.83 146.4H-256.566C-294.368 146.4 -298.422 130.589 -298.422 120.961V120.049H-272.275C-271.971 123.191 -270.653 129.88 -255.654 129.88H-255.046C-240.351 129.88 -238.425 125.725 -238.425 121.975C-238.425 118.022 -240.756 115.286 -253.222 114.982L-263.559 114.678C-289.909 113.867 -297.51 103.834 -297.51 92.1791V91.267C-297.51 78.8013 -290.213 68.6666 -258.086 68.6666H-254.235C-219.372 68.6666 -214.203 81.0309 -214.203 91.571V92.3818H-239.945C-240.452 89.24 -242.377 84.6794 -255.857 84.6794H-256.769C-269.64 84.6794 -272.275 87.2131 -272.275 90.8616C-272.275 94.3074 -269.741 97.0437 -258.289 97.3478L-247.647 97.6518C-219.574 98.4626 -212.886 107.28 -212.886 120.049V121.266C-212.886 132.92 -218.156 146.4 -253.83 146.4ZM-154.608 68.4639H-150.047C-112.346 68.4639 -103.124 89.6454 -103.124 105.658V108.699C-103.124 124.509 -112.245 146.298 -150.047 146.298H-154.608C-192.309 146.298 -201.532 124.509 -201.532 108.699V105.658C-201.532 89.6454 -192.309 68.4639 -154.608 68.4639ZM-128.359 107.786V106.469C-128.359 98.2599 -132.21 87.3144 -152.277 87.3144C-172.445 87.3144 -176.296 98.2599 -176.296 106.469V107.786C-176.296 115.995 -172.04 127.245 -152.277 127.245C-132.21 127.245 -128.359 115.995 -128.359 107.786ZM-64.505 145.082H-88.6259V69.6801H-64.505V99.7801L-31.3646 69.6801H-1.97397L-40.1818 103.935L0.154327 145.082H-30.8579L-64.505 110.523V145.082ZM46.3043 68.4639H50.8649C88.5659 68.4639 97.7884 89.6454 97.7884 105.658V108.699C97.7884 124.509 88.6672 146.298 50.8649 146.298H46.3043C8.60332 146.298 -0.619263 124.509 -0.619263 108.699V105.658C-0.619263 89.6454 8.60332 68.4639 46.3043 68.4639ZM72.5531 107.786V106.469C72.5531 98.2599 68.7019 87.3144 48.6352 87.3144C28.4673 87.3144 24.6161 98.2599 24.6161 106.469V107.786C24.6161 115.995 28.8726 127.245 48.6352 127.245C68.7019 127.245 72.5531 115.995 72.5531 107.786ZM112.287 69.6801H136.508V125.421H182.114V145.082H112.287V69.6801ZM237.022 68.4639H241.583C279.284 68.4639 288.506 89.6454 288.506 105.658V108.699C288.506 124.509 279.385 146.298 241.583 146.298H237.022C199.321 146.298 190.099 124.509 190.099 108.699V105.658C190.099 89.6454 199.321 68.4639 237.022 68.4639ZM263.271 107.786V106.469C263.271 98.2599 259.42 87.3144 239.353 87.3144C219.185 87.3144 215.334 98.2599 215.334 106.469V107.786C215.334 115.995 219.591 127.245 239.353 127.245C259.42 127.245 263.271 115.995 263.271 107.786ZM358.908 145.082H328.099L292.121 69.6801H320.194L343.909 123.394L367.624 69.6801H393.366L358.908 145.082Z" fill="black"/>
</mask>
<g mask="url(#mask1_368_130)">
<path d="M-298.422 120.049V118.049H-300.422V120.049H-298.422ZM-272.275 120.049L-270.284 119.857L-270.459 118.049H-272.275V120.049ZM-253.222 114.982L-253.28 116.981H-253.27L-253.222 114.982ZM-263.559 114.678L-263.62 116.677H-263.618L-263.559 114.678ZM-214.203 92.3818V94.3818H-212.203V92.3818H-214.203ZM-239.945 92.3818L-241.92 92.7003L-241.648 94.3818H-239.945V92.3818ZM-258.289 97.3478L-258.232 95.3486L-258.236 95.3485L-258.289 97.3478ZM-253.83 144.4H-256.566V148.4H-253.83V144.4ZM-256.566 144.4C-275.249 144.4 -285.125 140.483 -290.333 135.803C-295.475 131.184 -296.422 125.496 -296.422 120.961H-300.422C-300.422 126.055 -299.343 133.086 -293.007 138.779C-286.737 144.411 -275.685 148.4 -256.566 148.4V144.4ZM-296.422 120.961V120.049H-300.422V120.961H-296.422ZM-298.422 122.049H-272.275V118.049H-298.422V122.049ZM-274.265 120.242C-274.098 121.972 -273.621 125.044 -270.83 127.614C-268.07 130.156 -263.408 131.88 -255.654 131.88V127.88C-262.899 127.88 -266.396 126.26 -268.12 124.672C-269.814 123.112 -270.147 121.269 -270.284 119.857L-274.265 120.242ZM-255.654 131.88H-255.046V127.88H-255.654V131.88ZM-255.046 131.88C-247.604 131.88 -242.957 130.846 -240.134 129.01C-238.673 128.06 -237.707 126.899 -237.13 125.609C-236.565 124.345 -236.425 123.075 -236.425 121.975H-240.425C-240.425 122.75 -240.526 123.405 -240.781 123.975C-241.024 124.519 -241.458 125.1 -242.315 125.657C-244.129 126.836 -247.792 127.88 -255.046 127.88V131.88ZM-236.425 121.975C-236.425 120.8 -236.597 119.546 -237.199 118.355C-237.814 117.139 -238.798 116.145 -240.161 115.371C-242.764 113.893 -246.899 113.136 -253.173 112.983L-253.27 116.981C-247.078 117.132 -243.815 117.896 -242.136 118.849C-241.358 119.292 -240.98 119.742 -240.769 120.16C-240.545 120.603 -240.425 121.174 -240.425 121.975H-236.425ZM-253.163 112.983L-263.5 112.679L-263.618 116.677L-253.28 116.981L-253.163 112.983ZM-263.497 112.679C-276.48 112.279 -284.47 109.61 -289.183 105.92C-293.795 102.31 -295.51 97.5281 -295.51 92.1791H-299.51C-299.51 98.485 -297.425 104.547 -291.649 109.07C-285.974 113.513 -276.989 116.266 -263.62 116.677L-263.497 112.679ZM-295.51 92.1791V91.267H-299.51V92.1791H-295.51ZM-295.51 91.267C-295.51 85.4745 -293.851 80.5407 -288.698 76.9302C-283.369 73.1963 -274.022 70.6666 -258.086 70.6666V66.6666C-274.277 66.6666 -284.642 69.2043 -290.993 73.6542C-297.521 78.2275 -299.51 84.5938 -299.51 91.267H-295.51ZM-258.086 70.6666H-254.235V66.6666H-258.086V70.6666ZM-254.235 70.6666C-236.961 70.6666 -227.5 73.7447 -222.376 77.7431C-217.388 81.635 -216.203 86.6518 -216.203 91.571H-212.203C-212.203 85.9502 -213.603 79.5148 -219.915 74.5895C-226.091 69.7707 -236.645 66.6666 -254.235 66.6666V70.6666ZM-216.203 91.571V92.3818H-212.203V91.571H-216.203ZM-214.203 90.3818H-239.945V94.3818H-214.203V90.3818ZM-237.971 92.0633C-238.273 90.1876 -239.059 87.6597 -241.903 85.7044C-244.62 83.8365 -248.951 82.6794 -255.857 82.6794V86.6794C-249.283 86.6794 -245.912 87.8026 -244.169 89.0005C-242.554 90.1109 -242.124 91.4343 -241.92 92.7003L-237.971 92.0633ZM-255.857 82.6794H-256.769V86.6794H-255.857V82.6794ZM-256.769 82.6794C-263.241 82.6794 -267.511 83.3009 -270.214 84.5996C-271.62 85.2749 -272.688 86.173 -273.379 87.3312C-274.066 88.4817 -274.275 89.71 -274.275 90.8616H-270.275C-270.275 90.189 -270.154 89.7324 -269.945 89.3817C-269.74 89.0386 -269.344 88.6192 -268.482 88.2051C-266.65 87.3248 -263.168 86.6794 -256.769 86.6794V82.6794ZM-274.275 90.8616C-274.275 91.9702 -274.07 93.1445 -273.446 94.2611C-272.819 95.3841 -271.849 96.3046 -270.551 97.0291C-268.045 98.4283 -264.14 99.1932 -258.342 99.3471L-258.236 95.3485C-263.89 95.1984 -266.978 94.443 -268.601 93.5366C-269.369 93.1083 -269.748 92.6796 -269.954 92.3109C-270.163 91.9358 -270.275 91.4758 -270.275 90.8616H-274.275ZM-258.346 99.347L-247.705 99.651L-247.59 95.6527L-258.232 95.3486L-258.346 99.347ZM-247.705 99.651C-233.785 100.053 -225.615 102.444 -220.942 105.964C-216.434 109.358 -214.886 114.041 -214.886 120.049H-210.886C-210.886 113.288 -212.681 107.177 -218.536 102.768C-224.225 98.4839 -233.436 96.0614 -247.59 95.6527L-247.705 99.651ZM-214.886 120.049V121.266H-210.886V120.049H-214.886ZM-214.886 121.266C-214.886 126.79 -216.123 132.375 -221.262 136.668C-226.505 141.049 -236.17 144.4 -253.83 144.4V148.4C-235.816 148.4 -225.008 145.01 -218.697 139.738C-212.283 134.378 -210.886 127.396 -210.886 121.266H-214.886ZM-154.608 70.4639H-150.047V66.4639H-154.608V70.4639ZM-150.047 70.4639C-131.573 70.4639 -120.428 75.6444 -113.889 82.4427C-107.327 89.2654 -105.124 98.0081 -105.124 105.658H-101.124C-101.124 97.2956 -103.532 87.4411 -111.006 79.6699C-118.504 71.8742 -130.821 66.4639 -150.047 66.4639V70.4639ZM-105.124 105.658V108.699H-101.124V105.658H-105.124ZM-105.124 108.699C-105.124 116.25 -107.304 125.102 -113.864 132.054C-120.395 138.975 -131.537 144.298 -150.047 144.298V148.298C-130.755 148.298 -118.436 142.727 -110.955 134.8C-103.504 126.905 -101.124 116.957 -101.124 108.699H-105.124ZM-150.047 144.298H-154.608V148.298H-150.047V144.298ZM-154.608 144.298C-173.066 144.298 -184.21 138.976 -190.754 132.053C-197.329 125.099 -199.532 116.246 -199.532 108.699H-203.532C-203.532 116.961 -201.123 126.908 -193.661 134.801C-186.169 142.726 -173.851 148.298 -154.608 148.298V144.298ZM-199.532 108.699V105.658H-203.532V108.699H-199.532ZM-199.532 105.658C-199.532 98.0081 -197.328 89.2654 -190.766 82.4427C-184.227 75.6444 -173.083 70.4639 -154.608 70.4639V66.4639C-173.834 66.4639 -186.151 71.8742 -193.649 79.6699C-201.123 87.4411 -203.532 97.2956 -203.532 105.658H-199.532ZM-126.359 107.786V106.469H-130.359V107.786H-126.359ZM-126.359 106.469C-126.359 102.089 -127.384 96.7274 -131.323 92.4572C-135.291 88.1558 -141.888 85.3144 -152.277 85.3144V89.3144C-142.599 89.3144 -137.237 91.9459 -134.263 95.1695C-131.26 98.4242 -130.359 102.64 -130.359 106.469H-126.359ZM-152.277 85.3144C-162.714 85.3144 -169.335 88.1541 -173.317 92.4545C-177.272 96.7253 -178.296 102.088 -178.296 106.469H-174.296C-174.296 102.641 -173.395 98.4263 -170.382 95.1721C-167.396 91.9476 -162.008 89.3144 -152.277 89.3144V85.3144ZM-178.296 106.469V107.786H-174.296V106.469H-178.296ZM-178.296 107.786C-178.296 112.201 -177.154 117.621 -173.169 121.949C-169.151 126.313 -162.541 129.245 -152.277 129.245V125.245C-161.776 125.245 -167.176 122.553 -170.226 119.239C-173.31 115.89 -174.296 111.58 -174.296 107.786H-178.296ZM-152.277 129.245C-141.872 129.245 -135.273 126.318 -131.31 121.936C-127.382 117.593 -126.359 112.165 -126.359 107.786H-130.359C-130.359 111.617 -131.262 115.919 -134.276 119.253C-137.256 122.547 -142.616 125.245 -152.277 125.245V129.245ZM-64.505 145.082V147.082H-62.505V145.082H-64.505ZM-88.6259 145.082H-90.6259V147.082H-88.6259V145.082ZM-88.6259 69.6801V67.6801H-90.6259V69.6801H-88.6259ZM-64.505 69.6801H-62.505V67.6801H-64.505V69.6801ZM-64.505 99.7801H-66.505V104.298L-63.1603 101.261L-64.505 99.7801ZM-31.3646 69.6801V67.6801H-32.1373L-32.7093 68.1996L-31.3646 69.6801ZM-1.97397 69.6801L-0.638885 71.1692L3.25281 67.6801H-1.97397V69.6801ZM-40.1818 103.935L-41.5169 102.446L-43.0738 103.842L-41.61 105.335L-40.1818 103.935ZM0.154327 145.082V147.082H4.91562L1.58252 143.682L0.154327 145.082ZM-30.8579 145.082L-32.2909 146.477L-31.702 147.082H-30.8579V145.082ZM-64.505 110.523L-63.072 109.128L-66.505 105.602V110.523H-64.505ZM-64.505 143.082H-88.6259V147.082H-64.505V143.082ZM-86.6259 145.082V69.6801H-90.6259V145.082H-86.6259ZM-88.6259 71.6801H-64.505V67.6801H-88.6259V71.6801ZM-66.505 69.6801V99.7801H-62.505V69.6801H-66.505ZM-63.1603 101.261L-30.0199 71.1606L-32.7093 68.1996L-65.8497 98.2996L-63.1603 101.261ZM-31.3646 71.6801H-1.97397V67.6801H-31.3646V71.6801ZM-3.30908 68.191L-41.5169 102.446L-38.8467 105.424L-0.638885 71.1692L-3.30908 68.191ZM-41.61 105.335L-1.27399 146.482L1.58252 143.682L-38.7535 102.535L-41.61 105.335ZM0.154327 143.082H-30.8579V147.082H0.154327V143.082ZM-29.4249 143.687L-63.072 109.128L-65.938 111.918L-32.2909 146.477L-29.4249 143.687ZM-66.505 110.523V145.082H-62.505V110.523H-66.505ZM46.3043 70.4639H50.8649V66.4639H46.3043V70.4639ZM50.8649 70.4639C69.3396 70.4639 80.4844 75.6444 87.0231 82.4427C93.5852 89.2654 95.7884 98.0081 95.7884 105.658H99.7884C99.7884 97.2956 97.3804 87.4411 89.906 79.6699C82.4081 71.8742 70.0911 66.4639 50.8649 66.4639V70.4639ZM95.7884 105.658V108.699H99.7884V105.658H95.7884ZM95.7884 108.699C95.7884 116.25 93.6085 125.102 87.048 132.054C80.5173 138.975 69.3752 144.298 50.8649 144.298V148.298C70.1569 148.298 82.4765 142.727 89.9571 134.8C97.4078 126.905 99.7884 116.957 99.7884 108.699H95.7884ZM50.8649 144.298H46.3043V148.298H50.8649V144.298ZM46.3043 144.298C27.8464 144.298 16.7025 138.976 10.1579 132.053C3.58353 125.099 1.38074 116.246 1.38074 108.699H-2.61926C-2.61926 116.961 -0.210788 126.908 7.25131 134.801C14.7433 142.726 27.0612 148.298 46.3043 148.298V144.298ZM1.38074 108.699V105.658H-2.61926V108.699H1.38074ZM1.38074 105.658C1.38074 98.0081 3.58392 89.2654 10.1461 82.4427C16.6847 75.6444 27.8295 70.4639 46.3043 70.4639V66.4639C27.0781 66.4639 14.761 71.8742 7.26312 79.6699C-0.211277 87.4411 -2.61926 97.2956 -2.61926 105.658H1.38074ZM74.5531 107.786V106.469H70.5531V107.786H74.5531ZM74.5531 106.469C74.5531 102.089 73.5287 96.7274 69.5891 92.4572C65.6209 88.1558 59.0242 85.3144 48.6352 85.3144V89.3144C58.313 89.3144 63.6752 91.9459 66.6492 95.1695C69.6519 98.4242 70.5531 102.64 70.5531 106.469H74.5531ZM48.6352 85.3144C38.1986 85.3144 31.577 88.1541 27.5952 92.4545C23.6407 96.7253 22.6161 102.088 22.6161 106.469H26.6161C26.6161 102.641 27.5171 98.4263 30.5302 95.1721C33.5159 91.9476 38.9039 89.3144 48.6352 89.3144V85.3144ZM22.6161 106.469V107.786H26.6161V106.469H22.6161ZM22.6161 107.786C22.6161 112.201 23.7583 117.621 27.7434 121.949C31.7616 126.313 38.3715 129.245 48.6352 129.245V125.245C39.1363 125.245 33.7367 122.553 30.686 119.239C27.6021 115.89 26.6161 111.58 26.6161 107.786H22.6161ZM48.6352 129.245C59.0405 129.245 65.6395 126.318 69.6026 121.936C73.5299 117.593 74.5531 112.165 74.5531 107.786H70.5531C70.5531 111.617 69.6506 115.919 66.6357 119.253C63.6565 122.547 58.2966 125.245 48.6352 125.245V129.245ZM112.287 69.6801V67.6801H110.287V69.6801H112.287ZM136.508 69.6801H138.508V67.6801H136.508V69.6801ZM136.508 125.421H134.508V127.421H136.508V125.421ZM182.114 125.421H184.114V123.421H182.114V125.421ZM182.114 145.082V147.082H184.114V145.082H182.114ZM112.287 145.082H110.287V147.082H112.287V145.082ZM112.287 71.6801H136.508V67.6801H112.287V71.6801ZM134.508 69.6801V125.421H138.508V69.6801H134.508ZM136.508 127.421H182.114V123.421H136.508V127.421ZM180.114 125.421V145.082H184.114V125.421H180.114ZM182.114 143.082H112.287V147.082H182.114V143.082ZM114.287 145.082V69.6801H110.287V145.082H114.287ZM237.022 70.4639H241.583V66.4639H237.022V70.4639ZM241.583 70.4639C260.058 70.4639 271.202 75.6444 277.741 82.4427C284.303 89.2654 286.506 98.0081 286.506 105.658H290.506C290.506 97.2956 288.098 87.4411 280.624 79.6699C273.126 71.8742 260.809 66.4639 241.583 66.4639V70.4639ZM286.506 105.658V108.699H290.506V105.658H286.506ZM286.506 108.699C286.506 116.25 284.326 125.102 277.766 132.054C271.235 138.975 260.093 144.298 241.583 144.298V148.298C260.875 148.298 273.194 142.727 280.675 134.8C288.126 126.905 290.506 116.957 290.506 108.699H286.506ZM241.583 144.298H237.022V148.298H241.583V144.298ZM237.022 144.298C218.564 144.298 207.42 138.976 200.876 132.053C194.301 125.099 192.099 116.246 192.099 108.699H188.099C188.099 116.961 190.507 126.908 197.969 134.801C205.461 142.726 217.779 148.298 237.022 148.298V144.298ZM192.099 108.699V105.658H188.099V108.699H192.099ZM192.099 105.658C192.099 98.0081 194.302 89.2654 200.864 82.4427C207.403 75.6444 218.547 70.4639 237.022 70.4639V66.4639C217.796 66.4639 205.479 71.8742 197.981 79.6699C190.507 87.4411 188.099 97.2956 188.099 105.658H192.099ZM265.271 107.786V106.469H261.271V107.786H265.271ZM265.271 106.469C265.271 102.089 264.247 96.7274 260.307 92.4572C256.339 88.1558 249.742 85.3144 239.353 85.3144V89.3144C249.031 89.3144 254.393 91.9459 257.367 95.1695C260.37 98.4242 261.271 102.64 261.271 106.469H265.271ZM239.353 85.3144C228.917 85.3144 222.295 88.1541 218.313 92.4545C214.359 96.7253 213.334 102.088 213.334 106.469H217.334C217.334 102.641 218.235 98.4263 221.248 95.1721C224.234 91.9476 229.622 89.3144 239.353 89.3144V85.3144ZM213.334 106.469V107.786H217.334V106.469H213.334ZM213.334 107.786C213.334 112.201 214.476 117.621 218.461 121.949C222.48 126.313 229.089 129.245 239.353 129.245V125.245C229.854 125.245 224.455 122.553 221.404 119.239C218.32 115.89 217.334 111.58 217.334 107.786H213.334ZM239.353 129.245C249.758 129.245 256.357 126.318 260.321 121.936C264.248 117.593 265.271 112.165 265.271 107.786H261.271C261.271 111.617 260.369 115.919 257.354 119.253C254.374 122.547 249.015 125.245 239.353 125.245V129.245ZM358.908 145.082V147.082H360.193L360.727 145.913L358.908 145.082ZM328.099 145.082L326.294 145.943L326.837 147.082H328.099V145.082ZM292.121 69.6801V67.6801H288.951L290.316 70.5414L292.121 69.6801ZM320.194 69.6801L322.024 68.8723L321.497 67.6801H320.194V69.6801ZM343.909 123.394L342.079 124.202L343.909 128.346L345.739 124.202L343.909 123.394ZM367.624 69.6801V67.6801H366.321L365.795 68.8723L367.624 69.6801ZM393.366 69.6801L395.185 70.5114L396.479 67.6801H393.366V69.6801ZM358.908 143.082H328.099V147.082H358.908V143.082ZM329.904 144.221L293.926 68.8188L290.316 70.5414L326.294 145.943L329.904 144.221ZM292.121 71.6801H320.194V67.6801H292.121V71.6801ZM318.364 70.4879L342.079 124.202L345.739 122.586L322.024 68.8723L318.364 70.4879ZM345.739 124.202L369.454 70.4879L365.795 68.8723L342.079 122.586L345.739 124.202ZM367.624 71.6801H393.366V67.6801H367.624V71.6801ZM391.547 68.8488L357.089 144.251L360.727 145.913L395.185 70.5114L391.547 68.8488Z" fill="white"/>
</g>
<mask id="mask2_368_130" style="mask-type:luminance" maskUnits="userSpaceOnUse" x="1082" y="178" width="648" height="87">
<path d="M1730 178.837H1082V264.837H1730V178.837Z" fill="white"/>
<path d="M1084.62 262.837V181.481H1120.05L1144 232.11L1168.49 181.481H1202.17V262.837H1176.59V210.896L1152.2 262.837H1134.05L1109.77 210.896V262.837H1084.62ZM1279.48 230.797L1265.81 200.398L1252.47 230.797H1279.48ZM1293.81 262.837L1287.46 248.731H1244.49L1238.26 262.837H1212.12L1249.08 181.481H1283.53L1321.69 262.837H1293.81ZM1349.78 262.837V202.038H1317.74V181.481H1407.84V202.038H1375.8V262.837H1349.78ZM1485.59 262.837H1452.35L1413.53 181.481H1443.82L1469.41 239.436L1495 181.481H1522.77L1485.59 262.837ZM1533.02 181.481H1610.99V200.179H1558.94V211.989H1609.35V231.344H1558.94V243.919H1611.64V262.837H1533.02V181.481ZM1659.75 262.837V233.422L1618.31 181.481H1650.35L1673.75 211.989L1697.26 181.481H1725.91L1685.78 233.531V262.837H1659.75Z" fill="black"/>
</mask>
<g mask="url(#mask2_368_130)">
<path d="M1084.62 262.837H1082.62V264.837H1084.62V262.837ZM1084.62 181.481V179.481H1082.62V181.481H1084.62ZM1120.05 181.481L1121.86 180.625L1121.32 179.481H1120.05V181.481ZM1144 232.11L1142.19 232.965L1143.98 236.744L1145.8 232.981L1144 232.11ZM1168.49 181.481V179.481H1167.24L1166.69 180.609L1168.49 181.481ZM1202.17 181.481H1204.17V179.481H1202.17V181.481ZM1202.17 262.837V264.837H1204.17V262.837H1202.17ZM1176.59 262.837H1174.59V264.837H1176.59V262.837ZM1176.59 210.896H1178.59L1174.78 210.046L1176.59 210.896ZM1152.2 262.837V264.837H1153.47L1154.01 263.687L1152.2 262.837ZM1134.05 262.837L1132.24 263.684L1132.78 264.837H1134.05V262.837ZM1109.77 210.896L1111.59 210.049L1107.77 210.896H1109.77ZM1109.77 262.837V264.837H1111.77V262.837H1109.77ZM1086.62 262.837V181.481H1082.62V262.837H1086.62ZM1084.62 183.481H1120.05V179.481H1084.62V183.481ZM1118.24 182.336L1142.19 232.965L1145.81 231.254L1121.86 180.625L1118.24 182.336ZM1145.8 232.981L1170.29 182.352L1166.69 180.609L1142.2 231.239L1145.8 232.981ZM1168.49 183.481H1202.17V179.481H1168.49V183.481ZM1200.17 181.481V262.837H1204.17V181.481H1200.17ZM1202.17 260.837H1176.59V264.837H1202.17V260.837ZM1178.59 262.837V210.896H1174.59V262.837H1178.59ZM1174.78 210.046L1150.39 261.987L1154.01 263.687L1178.4 211.746L1174.78 210.046ZM1152.2 260.837H1134.05V264.837H1152.2V260.837ZM1135.86 261.99L1111.59 210.049L1107.96 211.742L1132.24 263.684L1135.86 261.99ZM1107.77 210.896V262.837H1111.77V210.896H1107.77ZM1109.77 260.837H1084.62V264.837H1109.77V260.837ZM1279.48 230.797V232.797H1282.57L1281.31 229.977L1279.48 230.797ZM1265.81 200.398L1267.64 199.578L1265.79 195.472L1263.98 199.594L1265.81 200.398ZM1252.47 230.797L1250.64 229.994L1249.41 232.797H1252.47V230.797ZM1293.81 262.837L1291.98 263.657L1292.51 264.837H1293.81V262.837ZM1287.46 248.731L1289.29 247.911L1288.76 246.731H1287.46V248.731ZM1244.49 248.731V246.731H1243.19L1242.66 247.922L1244.49 248.731ZM1238.26 262.837V264.837H1239.56L1240.09 263.645L1238.26 262.837ZM1212.12 262.837L1210.3 262.01L1209.02 264.837H1212.12V262.837ZM1249.08 181.481V179.481H1247.79L1247.26 180.653L1249.08 181.481ZM1283.53 181.481L1285.34 180.631L1284.8 179.481H1283.53V181.481ZM1321.69 262.837V264.837H1324.84L1323.5 261.988L1321.69 262.837ZM1281.31 229.977L1267.64 199.578L1263.99 201.218L1277.66 231.618L1281.31 229.977ZM1263.98 199.594L1250.64 229.994L1254.3 231.601L1267.64 201.202L1263.98 199.594ZM1252.47 232.797H1279.48V228.797H1252.47V232.797ZM1295.63 262.017L1289.29 247.911L1285.64 249.551L1291.98 263.657L1295.63 262.017ZM1287.46 246.731H1244.49V250.731H1287.46V246.731ZM1242.66 247.922L1236.43 262.029L1240.09 263.645L1246.32 249.539L1242.66 247.922ZM1238.26 260.837H1212.12V264.837H1238.26V260.837ZM1213.94 263.664L1250.9 182.308L1247.26 180.653L1210.3 262.01L1213.94 263.664ZM1249.08 183.481H1283.53V179.481H1249.08V183.481ZM1281.72 182.33L1319.88 263.686L1323.5 261.988L1285.34 180.631L1281.72 182.33ZM1321.69 260.837H1293.81V264.837H1321.69V260.837ZM1349.78 262.837H1347.78V264.837H1349.78V262.837ZM1349.78 202.038H1351.78V200.038H1349.78V202.038ZM1317.74 202.038H1315.74V204.038H1317.74V202.038ZM1317.74 181.481V179.481H1315.74V181.481H1317.74ZM1407.84 181.481H1409.84V179.481H1407.84V181.481ZM1407.84 202.038V204.038H1409.84V202.038H1407.84ZM1375.8 202.038V200.038H1373.8V202.038H1375.8ZM1375.8 262.837V264.837H1377.8V262.837H1375.8ZM1351.78 262.837V202.038H1347.78V262.837H1351.78ZM1349.78 200.038H1317.74V204.038H1349.78V200.038ZM1319.74 202.038V181.481H1315.74V202.038H1319.74ZM1317.74 183.481H1407.84V179.481H1317.74V183.481ZM1405.84 181.481V202.038H1409.84V181.481H1405.84ZM1407.84 200.038H1375.8V204.038H1407.84V200.038ZM1373.8 202.038V262.837H1377.8V202.038H1373.8ZM1375.8 260.837H1349.78V264.837H1375.8V260.837ZM1485.59 262.837V264.837H1486.88L1487.41 263.668L1485.59 262.837ZM1452.35 262.837L1450.54 263.698L1451.09 264.837H1452.35V262.837ZM1413.53 181.481V179.481H1410.36L1411.73 182.342L1413.53 181.481ZM1443.82 181.481L1445.65 180.673L1445.12 179.481H1443.82V181.481ZM1469.41 239.436L1467.58 240.244L1469.41 244.388L1471.24 240.244L1469.41 239.436ZM1495 181.481V179.481H1493.69L1493.17 180.673L1495 181.481ZM1522.77 181.481L1524.59 182.312L1525.88 179.481H1522.77V181.481ZM1485.59 260.837H1452.35V264.837H1485.59V260.837ZM1454.15 261.976L1415.34 180.619L1411.73 182.342L1450.54 263.698L1454.15 261.976ZM1413.53 183.481H1443.82V179.481H1413.53V183.481ZM1441.99 182.288L1467.58 240.244L1471.24 238.628L1445.65 180.673L1441.99 182.288ZM1471.24 240.244L1496.83 182.288L1493.17 180.673L1467.58 238.628L1471.24 240.244ZM1495 183.481H1522.77V179.481H1495V183.481ZM1520.95 180.649L1483.77 262.006L1487.41 263.668L1524.59 182.312L1520.95 180.649ZM1533.02 181.481V179.481H1531.02V181.481H1533.02ZM1610.99 181.481H1612.99V179.481H1610.99V181.481ZM1610.99 200.179V202.179H1612.99V200.179H1610.99ZM1558.94 200.179V198.179H1556.94V200.179H1558.94ZM1558.94 211.989H1556.94V213.989H1558.94V211.989ZM1609.35 211.989H1611.35V209.989H1609.35V211.989ZM1609.35 231.344V233.344H1611.35V231.344H1609.35ZM1558.94 231.344V229.344H1556.94V231.344H1558.94ZM1558.94 243.919H1556.94V245.919H1558.94V243.919ZM1611.64 243.919H1613.64V241.919H1611.64V243.919ZM1611.64 262.837V264.837H1613.64V262.837H1611.64ZM1533.02 262.837H1531.02V264.837H1533.02V262.837ZM1533.02 183.481H1610.99V179.481H1533.02V183.481ZM1608.99 181.481V200.179H1612.99V181.481H1608.99ZM1610.99 198.179H1558.94V202.179H1610.99V198.179ZM1556.94 200.179V211.989H1560.94V200.179H1556.94ZM1558.94 213.989H1609.35V209.989H1558.94V213.989ZM1607.35 211.989V231.344H1611.35V211.989H1607.35ZM1609.35 229.344H1558.94V233.344H1609.35V229.344ZM1556.94 231.344V243.919H1560.94V231.344H1556.94ZM1558.94 245.919H1611.64V241.919H1558.94V245.919ZM1609.64 243.919V262.837H1613.64V243.919H1609.64ZM1611.64 260.837H1533.02V264.837H1611.64V260.837ZM1535.02 262.837V181.481H1531.02V262.837H1535.02ZM1659.75 262.837H1657.75V264.837H1659.75V262.837ZM1659.75 233.422H1661.75V232.722L1661.32 232.174L1659.75 233.422ZM1618.31 181.481V179.481H1614.16L1616.75 182.728L1618.31 181.481ZM1650.35 181.481L1651.94 180.263L1651.34 179.481H1650.35V181.481ZM1673.75 211.989L1672.16 213.206L1673.75 215.271L1675.33 213.21L1673.75 211.989ZM1697.26 181.481V179.481H1696.28L1695.68 180.26L1697.26 181.481ZM1725.91 181.481L1727.49 182.702L1729.98 179.481H1725.91V181.481ZM1685.78 233.531L1684.19 232.31L1683.78 232.85V233.531H1685.78ZM1685.78 262.837V264.837H1687.78V262.837H1685.78ZM1661.75 262.837V233.422H1657.75V262.837H1661.75ZM1661.32 232.174L1619.87 180.233L1616.75 182.728L1658.19 234.669L1661.32 232.174ZM1618.31 183.481H1650.35V179.481H1618.31V183.481ZM1648.76 182.698L1672.16 213.206L1675.34 210.772L1651.94 180.263L1648.76 182.698ZM1675.33 213.21L1698.84 182.701L1695.68 180.26L1672.17 210.768L1675.33 213.21ZM1697.26 183.481H1725.91V179.481H1697.26V183.481ZM1724.33 180.259L1684.19 232.31L1687.36 234.752L1727.49 182.702L1724.33 180.259ZM1683.78 233.531V262.837H1687.78V233.531H1683.78ZM1685.78 260.837H1659.75V264.837H1685.78V260.837Z" fill="white"/>
</g>
<mask id="mask3_368_130" style="mask-type:luminance" maskUnits="userSpaceOnUse" x="-249" y="178" width="649" height="87">
<path d="M399.902 178.837H-248.098V264.837H399.902V178.837Z" fill="white"/>
<path d="M-245.477 262.837V181.481H-210.047L-186.1 232.11L-161.605 181.481H-127.926V262.837H-153.514V210.896L-177.899 262.837H-196.051L-220.326 210.896V262.837H-245.477ZM-50.6172 230.797L-64.2861 200.398L-77.6266 230.797H-50.6172ZM-36.2924 262.837L-42.6348 248.731H-85.6096L-91.8426 262.837H-117.977L-81.0166 181.481H-46.5714L-8.40816 262.837H-36.2924ZM19.6785 262.837V202.038H-12.3611V181.481H77.7433V202.038H45.7039V262.837H19.6785ZM155.492 262.837H122.251L83.4312 181.481H113.721L139.309 239.436L164.897 181.481H192.671L155.492 262.837ZM202.922 181.481H280.889V200.179H228.838V211.989H279.248V231.344H228.838V243.919H281.545V262.837H202.922V181.481ZM329.654 262.837V233.422L288.21 181.481H320.25L343.651 211.989L367.161 181.481H395.81L355.679 233.531V262.837H329.654Z" fill="black"/>
</mask>
<g mask="url(#mask3_368_130)">
<path d="M-245.477 262.837H-247.477V264.837H-245.477V262.837ZM-245.477 181.481V179.481H-247.477V181.481H-245.477ZM-210.047 181.481L-208.24 180.625L-208.781 179.481H-210.047V181.481ZM-186.1 232.11L-187.908 232.965L-186.12 236.744L-184.299 232.981L-186.1 232.11ZM-161.605 181.481V179.481H-162.86L-163.406 180.609L-161.605 181.481ZM-127.926 181.481H-125.926V179.481H-127.926V181.481ZM-127.926 262.837V264.837H-125.926V262.837H-127.926ZM-153.514 262.837H-155.514V264.837H-153.514V262.837ZM-153.514 210.896H-151.514L-155.324 210.046L-153.514 210.896ZM-177.899 262.837V264.837H-176.628L-176.088 263.687L-177.899 262.837ZM-196.051 262.837L-197.863 263.684L-197.324 264.837H-196.051V262.837ZM-220.326 210.896L-218.514 210.049L-222.326 210.896H-220.326ZM-220.326 262.837V264.837H-218.326V262.837H-220.326ZM-243.477 262.837V181.481H-247.477V262.837H-243.477ZM-245.477 183.481H-210.047V179.481H-245.477V183.481ZM-211.855 182.336L-187.908 232.965L-184.292 231.254L-208.24 180.625L-211.855 182.336ZM-184.299 232.981L-159.805 182.352L-163.406 180.609L-187.9 231.239L-184.299 232.981ZM-161.605 183.481H-127.926V179.481H-161.605V183.481ZM-129.926 181.481V262.837H-125.926V181.481H-129.926ZM-127.926 260.837H-153.514V264.837H-127.926V260.837ZM-151.514 262.837V210.896H-155.514V262.837H-151.514ZM-155.324 210.046L-179.709 261.987L-176.088 263.687L-151.703 211.746L-155.324 210.046ZM-177.899 260.837H-196.051V264.837H-177.899V260.837ZM-194.239 261.99L-218.514 210.049L-222.138 211.742L-197.863 263.684L-194.239 261.99ZM-222.326 210.896V262.837H-218.326V210.896H-222.326ZM-220.326 260.837H-245.477V264.837H-220.326V260.837ZM-50.6172 230.797V232.797H-47.5251L-48.7932 229.977L-50.6172 230.797ZM-64.2861 200.398L-62.462 199.578L-64.3083 195.472L-66.1175 199.594L-64.2861 200.398ZM-77.6266 230.797L-79.4586 229.994L-80.6886 232.797H-77.6266V230.797ZM-36.2924 262.837L-38.1166 263.657L-37.5861 264.837H-36.2924V262.837ZM-42.6348 248.731L-40.8107 247.911L-41.3411 246.731H-42.6348V248.731ZM-85.6096 248.731V246.731H-86.9126L-87.4386 247.922L-85.6096 248.731ZM-91.8426 262.837V264.837H-90.5396L-90.0126 263.645L-91.8426 262.837ZM-117.977 262.837L-119.798 262.01L-121.083 264.837H-117.977V262.837ZM-81.0166 181.481V179.481H-82.3046L-82.8376 180.653L-81.0166 181.481ZM-46.5714 181.481L-44.7607 180.631L-45.3004 179.481H-46.5714V181.481ZM-8.40816 262.837V264.837H-5.26086L-6.59746 261.988L-8.40816 262.837ZM-48.7932 229.977L-62.462 199.578L-66.1102 201.218L-52.4413 231.618L-48.7932 229.977ZM-66.1175 199.594L-79.4586 229.994L-75.7956 231.601L-62.4547 201.202L-66.1175 199.594ZM-77.6266 232.797H-50.6172V228.797H-77.6266V232.797ZM-34.4684 262.017L-40.8107 247.911L-44.4589 249.551L-38.1166 263.657L-34.4684 262.017ZM-42.6348 246.731H-85.6096V250.731H-42.6348V246.731ZM-87.4386 247.922L-93.6716 262.029L-90.0126 263.645L-83.7796 249.539L-87.4386 247.922ZM-91.8426 260.837H-117.977V264.837H-91.8426V260.837ZM-116.156 263.664L-79.1956 182.308L-82.8376 180.653L-119.798 262.01L-116.156 263.664ZM-81.0166 183.481H-46.5714V179.481H-81.0166V183.481ZM-48.382 182.33L-10.2189 263.686L-6.59746 261.988L-44.7607 180.631L-48.382 182.33ZM-8.40816 260.837H-36.2924V264.837H-8.40816V260.837ZM19.6785 262.837H17.6785V264.837H19.6785V262.837ZM19.6785 202.038H21.6785V200.038H19.6785V202.038ZM-12.3611 202.038H-14.3611V204.038H-12.3611V202.038ZM-12.3611 181.481V179.481H-14.3611V181.481H-12.3611ZM77.7433 181.481H79.7433V179.481H77.7433V181.481ZM77.7433 202.038V204.038H79.7433V202.038H77.7433ZM45.7039 202.038V200.038H43.7039V202.038H45.7039ZM45.7039 262.837V264.837H47.7039V262.837H45.7039ZM21.6785 262.837V202.038H17.6785V262.837H21.6785ZM19.6785 200.038H-12.3611V204.038H19.6785V200.038ZM-10.3611 202.038V181.481H-14.3611V202.038H-10.3611ZM-12.3611 183.481H77.7433V179.481H-12.3611V183.481ZM75.7433 181.481V202.038H79.7433V181.481H75.7433ZM77.7433 200.038H45.7039V204.038H77.7433V200.038ZM43.7039 202.038V262.837H47.7039V202.038H43.7039ZM45.7039 260.837H19.6785V264.837H45.7039V260.837ZM155.492 262.837V264.837H156.777L157.312 263.668L155.492 262.837ZM122.251 262.837L120.445 263.698L120.989 264.837H122.251V262.837ZM83.4312 181.481V179.481H80.261L81.6263 182.342L83.4312 181.481ZM113.721 181.481L115.551 180.673L115.024 179.481H113.721V181.481ZM139.309 239.436L137.479 240.244L139.309 244.388L141.138 240.244L139.309 239.436ZM164.897 181.481V179.481H163.593L163.067 180.673L164.897 181.481ZM192.671 181.481L194.491 182.312L195.784 179.481H192.671V181.481ZM155.492 260.837H122.251V264.837H155.492V260.837ZM124.056 261.976L85.2363 180.619L81.6263 182.342L120.445 263.698L124.056 261.976ZM83.4312 183.481H113.721V179.481H83.4312V183.481ZM111.892 182.288L137.479 240.244L141.138 238.628L115.551 180.673L111.892 182.288ZM141.138 240.244L166.726 182.288L163.067 180.673L137.479 238.628L141.138 240.244ZM164.897 183.481H192.671V179.481H164.897V183.481ZM190.852 180.649L153.673 262.006L157.312 263.668L194.491 182.312L190.852 180.649ZM202.922 181.481V179.481H200.922V181.481H202.922ZM280.889 181.481H282.889V179.481H280.889V181.481ZM280.889 200.179V202.179H282.889V200.179H280.889ZM228.838 200.179V198.179H226.838V200.179H228.838ZM228.838 211.989H226.838V213.989H228.838V211.989ZM279.248 211.989H281.248V209.989H279.248V211.989ZM279.248 231.344V233.344H281.248V231.344H279.248ZM228.838 231.344V229.344H226.838V231.344H228.838ZM228.838 243.919H226.838V245.919H228.838V243.919ZM281.545 243.919H283.545V241.919H281.545V243.919ZM281.545 262.837V264.837H283.545V262.837H281.545ZM202.922 262.837H200.922V264.837H202.922V262.837ZM202.922 183.481H280.889V179.481H202.922V183.481ZM278.889 181.481V200.179H282.889V181.481H278.889ZM280.889 198.179H228.838V202.179H280.889V198.179ZM226.838 200.179V211.989H230.838V200.179H226.838ZM228.838 213.989H279.248V209.989H228.838V213.989ZM277.248 211.989V231.344H281.248V211.989H277.248ZM279.248 229.344H228.838V233.344H279.248V229.344ZM226.838 231.344V243.919H230.838V231.344H226.838ZM228.838 245.919H281.545V241.919H228.838V245.919ZM279.545 243.919V262.837H283.545V243.919H279.545ZM281.545 260.837H202.922V264.837H281.545V260.837ZM204.922 262.837V181.481H200.922V262.837H204.922ZM329.654 262.837H327.654V264.837H329.654V262.837ZM329.654 233.422H331.654V232.722L331.217 232.174L329.654 233.422ZM288.21 181.481V179.481H284.056L286.647 182.728L288.21 181.481ZM320.25 181.481L321.837 180.263L321.236 179.481H320.25V181.481ZM343.651 211.989L342.064 213.206L343.647 215.271L345.235 213.21L343.651 211.989ZM367.161 181.481V179.481H366.177L365.577 180.26L367.161 181.481ZM395.81 181.481L397.394 182.702L399.878 179.481H395.81V181.481ZM355.679 233.531L354.095 232.31L353.679 232.85V233.531H355.679ZM355.679 262.837V264.837H357.679V262.837H355.679ZM331.654 262.837V233.422H327.654V262.837H331.654ZM331.217 232.174L289.773 180.233L286.647 182.728L328.09 234.669L331.217 232.174ZM288.21 183.481H320.25V179.481H288.21V183.481ZM318.663 182.698L342.064 213.206L345.237 210.772L321.837 180.263L318.663 182.698ZM345.235 213.21L368.745 182.701L365.577 180.26L342.066 210.768L345.235 213.21ZM367.161 183.481H395.81V179.481H367.161V183.481ZM394.227 180.259L354.095 232.31L357.263 234.752L397.394 182.702L394.227 180.259ZM353.679 233.531V262.837H357.679V233.531H353.679ZM355.679 260.837H329.654V264.837H355.679V260.837Z" fill="white"/>
</g>
<path d="M455.269 146.4H452.533C414.73 146.4 410.676 130.589 410.676 120.961V120.049H436.824C437.128 123.191 438.445 129.88 453.445 129.88H454.053C468.748 129.88 470.674 125.725 470.674 121.975C470.674 118.022 468.343 115.286 455.877 114.982L445.54 114.678C419.19 113.867 411.589 103.834 411.589 92.1791V91.267C411.589 78.8013 418.886 68.6666 451.012 68.6666H454.864C489.727 68.6666 494.896 81.0309 494.896 91.571V92.3818H469.154C468.647 89.24 466.721 84.6794 453.242 84.6794H452.33C439.459 84.6794 436.824 87.2131 436.824 90.8616C436.824 94.3074 439.358 97.0437 450.81 97.3478L461.451 97.6518C489.524 98.4626 496.213 107.28 496.213 120.049V121.266C496.213 132.92 490.943 146.4 455.269 146.4ZM554.491 68.4639H559.051C596.752 68.4639 605.975 89.6454 605.975 105.658V108.699C605.975 124.509 596.854 146.298 559.051 146.298H554.491C516.79 146.298 507.567 124.509 507.567 108.699V105.658C507.567 89.6454 516.79 68.4639 554.491 68.4639ZM580.74 107.786V106.469C580.74 98.2599 576.888 87.3144 556.822 87.3144C536.654 87.3144 532.802 98.2599 532.802 106.469V107.786C532.802 115.995 537.059 127.245 556.822 127.245C576.888 127.245 580.74 115.995 580.74 107.786ZM644.594 145.082H620.473V69.6801H644.594V99.7801L677.734 69.6801H707.125L668.917 103.935L709.253 145.082H678.241L644.594 110.523V145.082ZM755.403 68.4639H759.963C797.664 68.4639 806.887 89.6454 806.887 105.658V108.699C806.887 124.509 797.766 146.298 759.963 146.298H755.403C717.702 146.298 708.479 124.509 708.479 108.699V105.658C708.479 89.6454 717.702 68.4639 755.403 68.4639ZM781.652 107.786V106.469C781.652 98.2599 777.8 87.3144 757.734 87.3144C737.566 87.3144 733.715 98.2599 733.715 106.469V107.786C733.715 115.995 737.971 127.245 757.734 127.245C777.8 127.245 781.652 115.995 781.652 107.786ZM821.385 69.6801H845.607V125.421H891.213V145.082H821.385V69.6801ZM946.121 68.4639H950.681C988.382 68.4639 997.605 89.6454 997.605 105.658V108.699C997.605 124.509 988.484 146.298 950.681 146.298H946.121C908.42 146.298 899.197 124.509 899.197 108.699V105.658C899.197 89.6454 908.42 68.4639 946.121 68.4639ZM972.37 107.786V106.469C972.37 98.2599 968.519 87.3144 948.452 87.3144C928.284 87.3144 924.433 98.2599 924.433 106.469V107.786C924.433 115.995 928.689 127.245 948.452 127.245C968.519 127.245 972.37 115.995 972.37 107.786ZM1068.01 145.082H1037.2L1001.22 69.6801H1029.29L1053.01 123.394L1076.72 69.6801H1102.46L1068.01 145.082Z" fill="url(#paint0_linear_368_130)"/>
<mask id="mask4_368_130" style="mask-type:luminance" maskUnits="userSpaceOnUse" x="1843" y="66" width="699" height="84">
<path d="M2541.8 66.082H1843.8V149.082H2541.8V66.082Z" fill="white"/>
<path d="M1891.06 146.4H1888.33C1850.53 146.4 1846.47 130.589 1846.47 120.961V120.049H1872.62C1872.92 123.191 1874.24 129.88 1889.24 129.88H1889.85C1904.54 129.88 1906.47 125.725 1906.47 121.975C1906.47 118.022 1904.14 115.286 1891.67 114.982L1881.34 114.678C1854.99 113.867 1847.38 103.834 1847.38 92.1791V91.267C1847.38 78.8013 1854.68 68.6666 1886.81 68.6666H1890.66C1925.52 68.6666 1930.69 81.0309 1930.69 91.571V92.3818H1904.95C1904.44 89.24 1902.52 84.6794 1889.04 84.6794H1888.13C1875.25 84.6794 1872.62 87.2131 1872.62 90.8616C1872.62 94.3074 1875.15 97.0437 1886.61 97.3478L1897.25 97.6518C1925.32 98.4626 1932.01 107.28 1932.01 120.049V121.266C1932.01 132.92 1926.74 146.4 1891.06 146.4ZM1990.29 68.4639H1994.85C2032.55 68.4639 2041.77 89.6454 2041.77 105.658V108.699C2041.77 124.509 2032.65 146.298 1994.85 146.298H1990.29C1952.59 146.298 1943.36 124.509 1943.36 108.699V105.658C1943.36 89.6454 1952.59 68.4639 1990.29 68.4639ZM2016.54 107.786V106.469C2016.54 98.2599 2012.68 87.3144 1992.62 87.3144C1972.45 87.3144 1968.6 98.2599 1968.6 106.469V107.786C1968.6 115.995 1972.85 127.245 1992.62 127.245C2012.68 127.245 2016.54 115.995 2016.54 107.786ZM2080.39 145.082H2056.27V69.6801H2080.39V99.7801L2113.53 69.6801H2142.92L2104.71 103.935L2145.05 145.082H2114.04L2080.39 110.523V145.082ZM2191.2 68.4639H2195.76C2233.46 68.4639 2242.68 89.6454 2242.68 105.658V108.699C2242.68 124.509 2233.56 146.298 2195.76 146.298H2191.2C2153.5 146.298 2144.28 124.509 2144.28 108.699V105.658C2144.28 89.6454 2153.5 68.4639 2191.2 68.4639ZM2217.45 107.786V106.469C2217.45 98.2599 2213.6 87.3144 2193.53 87.3144C2173.36 87.3144 2169.51 98.2599 2169.51 106.469V107.786C2169.51 115.995 2173.77 127.245 2193.53 127.245C2213.6 127.245 2217.45 115.995 2217.45 107.786ZM2257.18 69.6801H2281.4V125.421H2327.01V145.082H2257.18V69.6801ZM2381.92 68.4639H2386.48C2424.18 68.4639 2433.4 89.6454 2433.4 105.658V108.699C2433.4 124.509 2424.28 146.298 2386.48 146.298H2381.92C2344.22 146.298 2334.99 124.509 2334.99 108.699V105.658C2334.99 89.6454 2344.22 68.4639 2381.92 68.4639ZM2408.17 107.786V106.469C2408.17 98.2599 2404.31 87.3144 2384.25 87.3144C2364.08 87.3144 2360.23 98.2599 2360.23 106.469V107.786C2360.23 115.995 2364.49 127.245 2384.25 127.245C2404.31 127.245 2408.17 115.995 2408.17 107.786ZM2503.8 145.082H2472.99L2437.02 69.6801H2465.09L2488.8 123.394L2512.52 69.6801H2538.26L2503.8 145.082Z" fill="black"/>
</mask>
<g mask="url(#mask4_368_130)">
<path d="M1846.47 120.049V118.049H1844.47V120.049H1846.47ZM1872.62 120.049L1874.61 119.857L1874.44 118.049H1872.62V120.049ZM1891.67 114.982L1891.61 116.981H1891.62L1891.67 114.982ZM1881.34 114.678L1881.27 116.677H1881.28L1881.34 114.678ZM1930.69 92.3818V94.3818H1932.69V92.3818H1930.69ZM1904.95 92.3818L1902.97 92.7003L1903.25 94.3818H1904.95V92.3818ZM1891.06 144.4H1888.33V148.4H1891.06V144.4ZM1888.33 144.4C1869.65 144.4 1859.77 140.483 1854.56 135.803C1849.42 131.184 1848.47 125.496 1848.47 120.961H1844.47C1844.47 126.055 1845.55 133.086 1851.89 138.779C1858.16 144.411 1869.21 148.4 1888.33 148.4V144.4ZM1848.47 120.961V120.049H1844.47V120.961H1848.47ZM1846.47 122.049H1872.62V118.049H1846.47V122.049ZM1870.63 120.242C1870.8 121.972 1871.27 125.044 1874.06 127.614C1876.82 130.156 1881.49 131.88 1889.24 131.88V127.88C1882 127.88 1878.5 126.26 1876.77 124.672C1875.08 123.112 1874.75 121.269 1874.61 119.857L1870.63 120.242ZM1889.24 131.88H1889.85V127.88H1889.24V131.88ZM1889.85 131.88C1897.29 131.88 1901.94 130.846 1904.76 129.01C1906.22 128.06 1907.19 126.899 1907.76 125.609C1908.33 124.345 1908.47 123.075 1908.47 121.975H1904.47C1904.47 122.75 1904.37 123.405 1904.11 123.975C1903.87 124.519 1903.44 125.1 1902.58 125.657C1900.77 126.836 1897.1 127.88 1889.85 127.88V131.88ZM1908.47 121.975C1908.47 120.8 1908.3 119.546 1907.7 118.355C1907.08 117.139 1906.1 116.145 1904.73 115.371C1902.13 113.893 1898 113.136 1891.72 112.983L1891.62 116.981C1897.82 117.132 1901.08 117.896 1902.76 118.849C1903.54 119.292 1903.91 119.742 1904.13 120.16C1904.35 120.603 1904.47 121.174 1904.47 121.975H1908.47ZM1891.73 112.983L1881.39 112.679L1881.28 116.677L1891.61 116.981L1891.73 112.983ZM1881.4 112.679C1868.41 112.279 1860.42 109.61 1855.71 105.92C1851.1 102.31 1849.38 97.5281 1849.38 92.1791H1845.38C1845.38 98.485 1847.47 104.547 1853.25 109.07C1858.92 113.513 1867.91 116.266 1881.27 116.677L1881.4 112.679ZM1849.38 92.1791V91.267H1845.38V92.1791H1849.38ZM1849.38 91.267C1849.38 85.4745 1851.04 80.5407 1856.2 76.9302C1861.53 73.1963 1870.87 70.6666 1886.81 70.6666V66.6666C1870.62 66.6666 1860.25 69.2043 1853.9 73.6542C1847.37 78.2275 1845.38 84.5938 1845.38 91.267H1849.38ZM1886.81 70.6666H1890.66V66.6666H1886.81V70.6666ZM1890.66 70.6666C1907.93 70.6666 1917.39 73.7447 1922.52 77.7431C1927.51 81.635 1928.69 86.6518 1928.69 91.571H1932.69C1932.69 85.9502 1931.29 79.5148 1924.98 74.5895C1918.8 69.7707 1908.25 66.6666 1890.66 66.6666V70.6666ZM1928.69 91.571V92.3818H1932.69V91.571H1928.69ZM1930.69 90.3818H1904.95V94.3818H1930.69V90.3818ZM1906.92 92.0633C1906.62 90.1876 1905.84 87.6597 1902.99 85.7044C1900.27 83.8365 1895.94 82.6794 1889.04 82.6794V86.6794C1895.61 86.6794 1898.98 87.8026 1900.73 89.0005C1902.34 90.1109 1902.77 91.4343 1902.97 92.7003L1906.92 92.0633ZM1889.04 82.6794H1888.13V86.6794H1889.04V82.6794ZM1888.13 82.6794C1881.65 82.6794 1877.38 83.3009 1874.68 84.5996C1873.27 85.2749 1872.21 86.173 1871.52 87.3312C1870.83 88.4817 1870.62 89.71 1870.62 90.8616H1874.62C1874.62 90.189 1874.74 89.7324 1874.95 89.3817C1875.15 89.0386 1875.55 88.6192 1876.41 88.2051C1878.24 87.3248 1881.73 86.6794 1888.13 86.6794V82.6794ZM1870.62 90.8616C1870.62 91.9702 1870.82 93.1445 1871.45 94.2611C1872.08 95.3841 1873.05 96.3046 1874.34 97.0291C1876.85 98.4283 1880.75 99.1932 1886.55 99.3471L1886.66 95.3486C1881 95.1985 1877.92 94.443 1876.29 93.5366C1875.53 93.1083 1875.15 92.6796 1874.94 92.3109C1874.73 91.9358 1874.62 91.4758 1874.62 90.8616H1870.62ZM1886.55 99.3471L1897.19 99.651L1897.3 95.6527L1886.66 95.3486L1886.55 99.3471ZM1897.19 99.651C1911.11 100.053 1919.28 102.444 1923.95 105.964C1928.46 109.358 1930.01 114.041 1930.01 120.049H1934.01C1934.01 113.288 1932.21 107.177 1926.36 102.768C1920.67 98.4839 1911.46 96.0614 1897.3 95.6527L1897.19 99.651ZM1930.01 120.049V121.266H1934.01V120.049H1930.01ZM1930.01 121.266C1930.01 126.79 1928.77 132.375 1923.63 136.668C1918.39 141.049 1908.72 144.4 1891.06 144.4V148.4C1909.08 148.4 1919.89 145.01 1926.2 139.738C1932.61 134.378 1934.01 127.396 1934.01 121.266H1930.01ZM1990.29 70.4639H1994.85V66.4639H1990.29V70.4639ZM1994.85 70.4639C2013.32 70.4639 2024.47 75.6444 2031.01 82.4427C2037.57 89.2654 2039.77 98.0081 2039.77 105.658H2043.77C2043.77 97.2956 2041.36 87.4411 2033.89 79.6699C2026.39 71.8742 2014.07 66.4639 1994.85 66.4639V70.4639ZM2039.77 105.658V108.699H2043.77V105.658H2039.77ZM2039.77 108.699C2039.77 116.25 2037.59 125.102 2031.03 132.054C2024.5 138.975 2013.36 144.298 1994.85 144.298V148.298C2014.14 148.298 2026.46 142.727 2033.94 134.8C2041.39 126.905 2043.77 116.957 2043.77 108.699H2039.77ZM1994.85 144.298H1990.29V148.298H1994.85V144.298ZM1990.29 144.298C1971.83 144.298 1960.68 138.976 1954.14 132.053C1947.57 125.099 1945.36 116.246 1945.36 108.699H1941.36C1941.36 116.961 1943.77 126.908 1951.23 134.801C1958.73 142.726 1971.04 148.298 1990.29 148.298V144.298ZM1945.36 108.699V105.658H1941.36V108.699H1945.36ZM1945.36 105.658C1945.36 98.0081 1947.57 89.2654 1954.13 82.4427C1960.67 75.6444 1971.81 70.4639 1990.29 70.4639V66.4639C1971.06 66.4639 1958.74 71.8742 1951.25 79.6699C1943.77 87.4411 1941.36 97.2956 1941.36 105.658H1945.36ZM2018.54 107.786V106.469H2014.54V107.786H2018.54ZM2018.54 106.469C2018.54 102.089 2017.51 96.7274 2013.57 92.4572C2009.6 88.1558 2003.01 85.3144 1992.62 85.3144V89.3144C2002.3 89.3144 2007.66 91.9459 2010.63 95.1695C2013.63 98.4242 2014.54 102.64 2014.54 106.469H2018.54ZM1992.62 85.3144C1982.18 85.3144 1975.56 88.1541 1971.58 92.4545C1967.62 96.7253 1966.6 102.088 1966.6 106.469H1970.6C1970.6 102.641 1971.5 98.4263 1974.51 95.1721C1977.5 91.9476 1982.89 89.3144 1992.62 89.3144V85.3144ZM1966.6 106.469V107.786H1970.6V106.469H1966.6ZM1966.6 107.786C1966.6 112.201 1967.74 117.621 1971.73 121.949C1975.74 126.313 1982.35 129.245 1992.62 129.245V125.245C1983.12 125.245 1977.72 122.553 1974.67 119.239C1971.58 115.89 1970.6 111.58 1970.6 107.786H1966.6ZM1992.62 129.245C2003.02 129.245 2009.62 126.318 2013.58 121.936C2017.51 117.593 2018.54 112.165 2018.54 107.786H2014.54C2014.54 111.617 2013.63 115.919 2010.62 119.253C2007.64 122.547 2002.28 125.245 1992.62 125.245V129.245ZM2080.39 145.082V147.082H2082.39V145.082H2080.39ZM2056.27 145.082H2054.27V147.082H2056.27V145.082ZM2056.27 69.6801V67.6801H2054.27V69.6801H2056.27ZM2080.39 69.6801H2082.39V67.6801H2080.39V69.6801ZM2080.39 99.7801H2078.39V104.298L2081.73 101.261L2080.39 99.7801ZM2113.53 69.6801V67.6801H2112.76L2112.19 68.1996L2113.53 69.6801ZM2142.92 69.6801L2144.26 71.1692L2148.15 67.6801H2142.92V69.6801ZM2104.71 103.935L2103.38 102.446L2101.82 103.842L2103.28 105.335L2104.71 103.935ZM2145.05 145.082V147.082H2149.81L2146.48 143.682L2145.05 145.082ZM2114.04 145.082L2112.6 146.477L2113.19 147.082H2114.04V145.082ZM2080.39 110.523L2081.82 109.128L2078.39 105.602V110.523H2080.39ZM2080.39 143.082H2056.27V147.082H2080.39V143.082ZM2058.27 145.082V69.6801H2054.27V145.082H2058.27ZM2056.27 71.6801H2080.39V67.6801H2056.27V71.6801ZM2078.39 69.6801V99.7801H2082.39V69.6801H2078.39ZM2081.73 101.261L2114.87 71.1606L2112.19 68.1996L2079.04 98.2996L2081.73 101.261ZM2113.53 71.6801H2142.92V67.6801H2113.53V71.6801ZM2141.59 68.191L2103.38 102.446L2106.05 105.424L2144.26 71.1692L2141.59 68.191ZM2103.28 105.335L2143.62 146.482L2146.48 143.682L2106.14 102.535L2103.28 105.335ZM2145.05 143.082H2114.04V147.082H2145.05V143.082ZM2115.47 143.687L2081.82 109.128L2078.96 111.918L2112.6 146.477L2115.47 143.687ZM2078.39 110.523V145.082H2082.39V110.523H2078.39ZM2191.2 70.4639H2195.76V66.4639H2191.2V70.4639ZM2195.76 70.4639C2214.23 70.4639 2225.38 75.6444 2231.92 82.4427C2238.48 89.2654 2240.68 98.0081 2240.68 105.658H2244.68C2244.68 97.2956 2242.27 87.4411 2234.8 79.6699C2227.3 71.8742 2214.99 66.4639 2195.76 66.4639V70.4639ZM2240.68 105.658V108.699H2244.68V105.658H2240.68ZM2240.68 108.699C2240.68 116.25 2238.5 125.102 2231.94 132.054C2225.41 138.975 2214.27 144.298 2195.76 144.298V148.298C2215.05 148.298 2227.37 142.727 2234.85 134.8C2242.3 126.905 2244.68 116.957 2244.68 108.699H2240.68ZM2195.76 144.298H2191.2V148.298H2195.76V144.298ZM2191.2 144.298C2172.74 144.298 2161.6 138.976 2155.05 132.053C2148.48 125.099 2146.28 116.246 2146.28 108.699H2142.28C2142.28 116.961 2144.68 126.908 2152.15 134.801C2159.64 142.726 2171.96 148.298 2191.2 148.298V144.298ZM2146.28 108.699V105.658H2142.28V108.699H2146.28ZM2146.28 105.658C2146.28 98.0081 2148.48 89.2654 2155.04 82.4427C2161.58 75.6444 2172.72 70.4639 2191.2 70.4639V66.4639C2171.97 66.4639 2159.66 71.8742 2152.16 79.6699C2144.68 87.4411 2142.28 97.2956 2142.28 105.658H2146.28ZM2219.45 107.786V106.469H2215.45V107.786H2219.45ZM2219.45 106.469C2219.45 102.089 2218.42 96.7274 2214.48 92.4572C2210.52 88.1558 2203.92 85.3144 2193.53 85.3144V89.3144C2203.21 89.3144 2208.57 91.9459 2211.54 95.1695C2214.55 98.4242 2215.45 102.64 2215.45 106.469H2219.45ZM2193.53 85.3144C2183.09 85.3144 2176.47 88.1541 2172.49 92.4545C2168.54 96.7253 2167.51 102.088 2167.51 106.469H2171.51C2171.51 102.641 2172.41 98.4263 2175.42 95.1721C2178.41 91.9476 2183.8 89.3144 2193.53 89.3144V85.3144ZM2167.51 106.469V107.786H2171.51V106.469H2167.51ZM2167.51 107.786C2167.51 112.201 2168.65 117.621 2172.64 121.949C2176.66 126.313 2183.27 129.245 2193.53 129.245V125.245C2184.03 125.245 2178.63 122.553 2175.58 119.239C2172.5 115.89 2171.51 111.58 2171.51 107.786H2167.51ZM2193.53 129.245C2203.93 129.245 2210.53 126.318 2214.5 121.936C2218.42 117.593 2219.45 112.165 2219.45 107.786H2215.45C2215.45 111.617 2214.55 115.919 2211.53 119.253C2208.55 122.547 2203.19 125.245 2193.53 125.245V129.245ZM2257.18 69.6801V67.6801H2255.18V69.6801H2257.18ZM2281.4 69.6801H2283.4V67.6801H2281.4V69.6801ZM2281.4 125.421H2279.4V127.421H2281.4V125.421ZM2327.01 125.421H2329.01V123.421H2327.01V125.421ZM2327.01 145.082V147.082H2329.01V145.082H2327.01ZM2257.18 145.082H2255.18V147.082H2257.18V145.082ZM2257.18 71.6801H2281.4V67.6801H2257.18V71.6801ZM2279.4 69.6801V125.421H2283.4V69.6801H2279.4ZM2281.4 127.421H2327.01V123.421H2281.4V127.421ZM2325.01 125.421V145.082H2329.01V125.421H2325.01ZM2327.01 143.082H2257.18V147.082H2327.01V143.082ZM2259.18 145.082V69.6801H2255.18V145.082H2259.18ZM2381.92 70.4639H2386.48V66.4639H2381.92V70.4639ZM2386.48 70.4639C2404.95 70.4639 2416.1 75.6444 2422.64 82.4427C2429.2 89.2654 2431.4 98.0081 2431.4 105.658H2435.4C2435.4 97.2956 2432.99 87.4411 2425.52 79.6699C2418.02 71.8742 2405.7 66.4639 2386.48 66.4639V70.4639ZM2431.4 105.658V108.699H2435.4V105.658H2431.4ZM2431.4 108.699C2431.4 116.25 2429.22 125.102 2422.66 132.054C2416.13 138.975 2404.99 144.298 2386.48 144.298V148.298C2405.77 148.298 2418.09 142.727 2425.57 134.8C2433.02 126.905 2435.4 116.957 2435.4 108.699H2431.4ZM2386.48 144.298H2381.92V148.298H2386.48V144.298ZM2381.92 144.298C2363.46 144.298 2352.31 138.976 2345.77 132.053C2339.2 125.099 2336.99 116.246 2336.99 108.699H2332.99C2332.99 116.961 2335.4 126.908 2342.86 134.801C2350.36 142.726 2362.67 148.298 2381.92 148.298V144.298ZM2336.99 108.699V105.658H2332.99V108.699H2336.99ZM2336.99 105.658C2336.99 98.0081 2339.2 89.2654 2345.76 82.4427C2352.3 75.6444 2363.44 70.4639 2381.92 70.4639V66.4639C2362.69 66.4639 2350.37 71.8742 2342.88 79.6699C2335.4 87.4411 2332.99 97.2956 2332.99 105.658H2336.99ZM2410.17 107.786V106.469H2406.17V107.786H2410.17ZM2410.17 106.469C2410.17 102.089 2409.14 96.7274 2405.2 92.4572C2401.23 88.1558 2394.64 85.3144 2384.25 85.3144V89.3144C2393.93 89.3144 2399.29 91.9459 2402.26 95.1695C2405.26 98.4242 2406.17 102.64 2406.17 106.469H2410.17ZM2384.25 85.3144C2373.81 85.3144 2367.19 88.1541 2363.21 92.4545C2359.25 96.7253 2358.23 102.088 2358.23 106.469H2362.23C2362.23 102.641 2363.13 98.4263 2366.14 95.1721C2369.13 91.9476 2374.52 89.3144 2384.25 89.3144V85.3144ZM2358.23 106.469V107.786H2362.23V106.469H2358.23ZM2358.23 107.786C2358.23 112.201 2359.37 117.621 2363.36 121.949C2367.37 126.313 2373.98 129.245 2384.25 129.245V125.245C2374.75 125.245 2369.35 122.553 2366.3 119.239C2363.21 115.89 2362.23 111.58 2362.23 107.786H2358.23ZM2384.25 129.245C2394.65 129.245 2401.25 126.318 2405.22 121.936C2409.14 117.593 2410.17 112.165 2410.17 107.786H2406.17C2406.17 111.617 2405.26 115.919 2402.25 119.253C2399.27 122.547 2393.91 125.245 2384.25 125.245V129.245ZM2503.8 145.082V147.082H2505.09L2505.62 145.913L2503.8 145.082ZM2472.99 145.082L2471.19 145.943L2471.73 147.082H2472.99V145.082ZM2437.02 69.6801V67.6801H2433.85L2435.21 70.5414L2437.02 69.6801ZM2465.09 69.6801L2466.92 68.8723L2466.39 67.6801H2465.09V69.6801ZM2488.8 123.394L2486.97 124.202L2488.8 128.346L2490.63 124.202L2488.8 123.394ZM2512.52 69.6801V67.6801H2511.22L2510.69 68.8723L2512.52 69.6801ZM2538.26 69.6801L2540.08 70.5114L2541.37 67.6801H2538.26V69.6801ZM2503.8 143.082H2472.99V147.082H2503.8V143.082ZM2474.8 144.221L2438.82 68.8188L2435.21 70.5414L2471.19 145.943L2474.8 144.221ZM2437.02 71.6801H2465.09V67.6801H2437.02V71.6801ZM2463.26 70.4879L2486.97 124.202L2490.63 122.586L2466.92 68.8723L2463.26 70.4879ZM2490.63 124.202L2514.35 70.4879L2510.69 68.8723L2486.97 122.586L2490.63 124.202ZM2512.52 71.6801H2538.26V67.6801H2512.52V71.6801ZM2536.44 68.8488L2501.98 144.251L2505.62 145.913L2540.08 70.5114L2536.44 68.8488Z" fill="white"/>
</g>
<mask id="mask5_368_130" style="mask-type:luminance" maskUnits="userSpaceOnUse" x="1753" y="178" width="649" height="87">
<path d="M2401.48 178.837H1753.48V264.837H2401.48V178.837Z" fill="white"/>
<path d="M1756.1 262.837V181.481H1791.53L1815.48 232.11L1839.97 181.481H1873.65V262.837H1848.07V210.896L1823.68 262.837H1805.53L1781.25 210.896V262.837H1756.1ZM1950.96 230.797L1937.29 200.398L1923.95 230.797H1950.96ZM1965.29 262.837L1958.94 248.731H1915.97L1909.74 262.837H1883.6L1920.56 181.481H1955.01L1993.17 262.837H1965.29ZM2021.26 262.837V202.038H1989.22V181.481H2079.32V202.038H2047.28V262.837H2021.26ZM2157.07 262.837H2123.83L2085.01 181.481H2115.3L2140.89 239.436L2166.48 181.481H2194.25L2157.07 262.837ZM2204.5 181.481H2282.47V200.179H2230.42V211.989H2280.83V231.344H2230.42V243.919H2283.12V262.837H2204.5V181.481ZM2331.23 262.837V233.422L2289.79 181.481H2321.83L2345.23 211.989L2368.74 181.481H2397.39L2357.26 233.531V262.837H2331.23Z" fill="black"/>
</mask>
<g mask="url(#mask5_368_130)">
<path d="M1756.1 262.837H1754.1V264.837H1756.1V262.837ZM1756.1 181.481V179.481H1754.1V181.481H1756.1ZM1791.53 181.481L1793.34 180.625L1792.8 179.481H1791.53V181.481ZM1815.48 232.11L1813.67 232.965L1815.46 236.744L1817.28 232.981L1815.48 232.11ZM1839.97 181.481V179.481H1838.72L1838.17 180.609L1839.97 181.481ZM1873.65 181.481H1875.65V179.481H1873.65V181.481ZM1873.65 262.837V264.837H1875.65V262.837H1873.65ZM1848.07 262.837H1846.07V264.837H1848.07V262.837ZM1848.07 210.896H1850.07L1846.26 210.046L1848.07 210.896ZM1823.68 262.837V264.837H1824.95L1825.49 263.687L1823.68 262.837ZM1805.53 262.837L1803.72 263.684L1804.26 264.837H1805.53V262.837ZM1781.25 210.896L1783.07 210.049L1779.25 210.896H1781.25ZM1781.25 262.837V264.837H1783.25V262.837H1781.25ZM1758.1 262.837V181.481H1754.1V262.837H1758.1ZM1756.1 183.481H1791.53V179.481H1756.1V183.481ZM1789.72 182.336L1813.67 232.965L1817.29 231.254L1793.34 180.625L1789.72 182.336ZM1817.28 232.981L1841.78 182.352L1838.17 180.609L1813.68 231.239L1817.28 232.981ZM1839.97 183.481H1873.65V179.481H1839.97V183.481ZM1871.65 181.481V262.837H1875.65V181.481H1871.65ZM1873.65 260.837H1848.07V264.837H1873.65V260.837ZM1850.07 262.837V210.896H1846.07V262.837H1850.07ZM1846.26 210.046L1821.87 261.987L1825.49 263.687L1849.88 211.746L1846.26 210.046ZM1823.68 260.837H1805.53V264.837H1823.68V260.837ZM1807.34 261.99L1783.07 210.049L1779.44 211.742L1803.72 263.684L1807.34 261.99ZM1779.25 210.896V262.837H1783.25V210.896H1779.25ZM1781.25 260.837H1756.1V264.837H1781.25V260.837ZM1950.96 230.797V232.797H1954.05L1952.79 229.977L1950.96 230.797ZM1937.29 200.398L1939.12 199.578L1937.27 195.472L1935.46 199.594L1937.29 200.398ZM1923.95 230.797L1922.12 229.994L1920.89 232.797H1923.95V230.797ZM1965.29 262.837L1963.46 263.657L1963.99 264.837H1965.29V262.837ZM1958.94 248.731L1960.77 247.911L1960.24 246.731H1958.94V248.731ZM1915.97 248.731V246.731H1914.67L1914.14 247.922L1915.97 248.731ZM1909.74 262.837V264.837H1911.04L1911.57 263.645L1909.74 262.837ZM1883.6 262.837L1881.78 262.01L1880.5 264.837H1883.6V262.837ZM1920.56 181.481V179.481H1919.27L1918.74 180.653L1920.56 181.481ZM1955.01 181.481L1956.82 180.631L1956.28 179.481H1955.01V181.481ZM1993.17 262.837V264.837H1996.32L1994.98 261.988L1993.17 262.837ZM1952.79 229.977L1939.12 199.578L1935.47 201.218L1949.14 231.618L1952.79 229.977ZM1935.46 199.594L1922.12 229.994L1925.78 231.601L1939.13 201.202L1935.46 199.594ZM1923.95 232.797H1950.96V228.797H1923.95V232.797ZM1967.11 262.017L1960.77 247.911L1957.12 249.551L1963.46 263.657L1967.11 262.017ZM1958.94 246.731H1915.97V250.731H1958.94V246.731ZM1914.14 247.922L1907.91 262.029L1911.57 263.645L1917.8 249.539L1914.14 247.922ZM1909.74 260.837H1883.6V264.837H1909.74V260.837ZM1885.42 263.664L1922.38 182.308L1918.74 180.653L1881.78 262.01L1885.42 263.664ZM1920.56 183.481H1955.01V179.481H1920.56V183.481ZM1953.2 182.33L1991.36 263.686L1994.98 261.988L1956.82 180.631L1953.2 182.33ZM1993.17 260.837H1965.29V264.837H1993.17V260.837ZM2021.26 262.837H2019.26V264.837H2021.26V262.837ZM2021.26 202.038H2023.26V200.038H2021.26V202.038ZM1989.22 202.038H1987.22V204.038H1989.22V202.038ZM1989.22 181.481V179.481H1987.22V181.481H1989.22ZM2079.32 181.481H2081.32V179.481H2079.32V181.481ZM2079.32 202.038V204.038H2081.32V202.038H2079.32ZM2047.28 202.038V200.038H2045.28V202.038H2047.28ZM2047.28 262.837V264.837H2049.28V262.837H2047.28ZM2023.26 262.837V202.038H2019.26V262.837H2023.26ZM2021.26 200.038H1989.22V204.038H2021.26V200.038ZM1991.22 202.038V181.481H1987.22V202.038H1991.22ZM1989.22 183.481H2079.32V179.481H1989.22V183.481ZM2077.32 181.481V202.038H2081.32V181.481H2077.32ZM2079.32 200.038H2047.28V204.038H2079.32V200.038ZM2045.28 202.038V262.837H2049.28V202.038H2045.28ZM2047.28 260.837H2021.26V264.837H2047.28V260.837ZM2157.07 262.837V264.837H2158.36L2158.89 263.668L2157.07 262.837ZM2123.83 262.837L2122.03 263.698L2122.57 264.837H2123.83V262.837ZM2085.01 181.481V179.481H2081.84L2083.21 182.342L2085.01 181.481ZM2115.3 181.481L2117.13 180.673L2116.6 179.481H2115.3V181.481ZM2140.89 239.436L2139.06 240.244L2140.89 244.388L2142.72 240.244L2140.89 239.436ZM2166.48 181.481V179.481H2165.17L2164.65 180.673L2166.48 181.481ZM2194.25 181.481L2196.07 182.312L2197.36 179.481H2194.25V181.481ZM2157.07 260.837H2123.83V264.837H2157.07V260.837ZM2125.64 261.976L2086.82 180.619L2083.21 182.342L2122.03 263.698L2125.64 261.976ZM2085.01 183.481H2115.3V179.481H2085.01V183.481ZM2113.47 182.288L2139.06 240.244L2142.72 238.628L2117.13 180.673L2113.47 182.288ZM2142.72 240.244L2168.31 182.288L2164.65 180.673L2139.06 238.628L2142.72 240.244ZM2166.48 183.481H2194.25V179.481H2166.48V183.481ZM2192.43 180.649L2155.25 262.006L2158.89 263.668L2196.07 182.312L2192.43 180.649ZM2204.5 181.481V179.481H2202.5V181.481H2204.5ZM2282.47 181.481H2284.47V179.481H2282.47V181.481ZM2282.47 200.179V202.179H2284.47V200.179H2282.47ZM2230.42 200.179V198.179H2228.42V200.179H2230.42ZM2230.42 211.989H2228.42V213.989H2230.42V211.989ZM2280.83 211.989H2282.83V209.989H2280.83V211.989ZM2280.83 231.344V233.344H2282.83V231.344H2280.83ZM2230.42 231.344V229.344H2228.42V231.344H2230.42ZM2230.42 243.919H2228.42V245.919H2230.42V243.919ZM2283.12 243.919H2285.12V241.919H2283.12V243.919ZM2283.12 262.837V264.837H2285.12V262.837H2283.12ZM2204.5 262.837H2202.5V264.837H2204.5V262.837ZM2204.5 183.481H2282.47V179.481H2204.5V183.481ZM2280.47 181.481V200.179H2284.47V181.481H2280.47ZM2282.47 198.179H2230.42V202.179H2282.47V198.179ZM2228.42 200.179V211.989H2232.42V200.179H2228.42ZM2230.42 213.989H2280.83V209.989H2230.42V213.989ZM2278.83 211.989V231.344H2282.83V211.989H2278.83ZM2280.83 229.344H2230.42V233.344H2280.83V229.344ZM2228.42 231.344V243.919H2232.42V231.344H2228.42ZM2230.42 245.919H2283.12V241.919H2230.42V245.919ZM2281.12 243.919V262.837H2285.12V243.919H2281.12ZM2283.12 260.837H2204.5V264.837H2283.12V260.837ZM2206.5 262.837V181.481H2202.5V262.837H2206.5ZM2331.23 262.837H2329.23V264.837H2331.23V262.837ZM2331.23 233.422H2333.23V232.722L2332.8 232.174L2331.23 233.422ZM2289.79 181.481V179.481H2285.64L2288.23 182.728L2289.79 181.481ZM2321.83 181.481L2323.42 180.263L2322.82 179.481H2321.83V181.481ZM2345.23 211.989L2343.64 213.206L2345.23 215.271L2346.81 213.21L2345.23 211.989ZM2368.74 181.481V179.481H2367.76L2367.16 180.26L2368.74 181.481ZM2397.39 181.481L2398.97 182.702L2401.46 179.481H2397.39V181.481ZM2357.26 233.531L2355.68 232.31L2355.26 232.85V233.531H2357.26ZM2357.26 262.837V264.837H2359.26V262.837H2357.26ZM2333.23 262.837V233.422H2329.23V262.837H2333.23ZM2332.8 232.174L2291.35 180.233L2288.23 182.728L2329.67 234.669L2332.8 232.174ZM2289.79 183.481H2321.83V179.481H2289.79V183.481ZM2320.24 182.698L2343.64 213.206L2346.82 210.772L2323.42 180.263L2320.24 182.698ZM2346.81 213.21L2370.33 182.701L2367.16 180.26L2343.65 210.768L2346.81 213.21ZM2368.74 183.481H2397.39V179.481H2368.74V183.481ZM2395.81 180.259L2355.68 232.31L2358.84 234.752L2398.97 182.702L2395.81 180.259ZM2355.26 233.531V262.837H2359.26V233.531H2355.26ZM2357.26 260.837H2331.23V264.837H2357.26V260.837Z" fill="white"/>
</g>
<g filter="url(#filter0_ddd_368_130)">
<path d="M414.621 262.837V181.481H450.05L473.998 232.11L498.492 181.481H532.172V262.837H506.584V210.896L482.199 262.837H464.047L439.771 210.896V262.837H414.621ZM609.48 230.797L595.811 200.398L582.47 230.797H609.48ZM623.805 262.837L617.462 248.731H574.488L568.255 262.837H542.12L579.081 181.481H613.526L651.689 262.837H623.805ZM679.776 262.837V202.038H647.736V181.481H737.841V202.038H705.801V262.837H679.776ZM815.59 262.837H782.348L743.528 181.481H773.818L799.406 239.436L824.994 181.481H852.769L815.59 262.837ZM863.02 181.481H940.986V200.179H888.936V211.989H939.346V231.344H888.936V243.919H941.643V262.837H863.02V181.481ZM989.751 262.837V233.422L948.308 181.481H980.347L1003.75 211.989L1027.26 181.481H1055.91L1015.78 233.531V262.837H989.751Z" fill="white"/>
</g>
<path d="M649.333 228.137C649.333 231.137 641.533 236.737 636.433 240.437C633.533 242.537 630.433 244.337 627.533 245.637C622.533 248.837 617.733 252.237 615.833 253.537C615.633 254.537 615.033 258.737 614.533 260.937C613.533 266.337 610.733 272.637 603.333 281.337C597.633 287.837 586.833 298.537 576.833 299.037C569.333 299.437 561.633 295.537 558.733 293.937C557.633 294.437 553.233 296.337 549.733 296.137C547.733 296.037 546.133 295.437 544.733 294.637C541.333 292.837 540.133 290.537 540.133 288.337C540.133 285.937 544.033 282.437 547.533 282.437C550.133 282.437 552.533 283.337 555.033 285.137C556.933 286.537 558.633 288.437 559.833 289.737C567.033 285.737 576.233 280.237 586.433 272.937C594.233 267.337 601.933 261.037 606.633 257.137C603.433 258.237 598.333 260.137 593.433 261.637C585.933 263.837 576.833 266.637 574.333 266.537C573.833 266.537 572.933 266.237 572.933 265.037C572.933 263.537 584.833 261.037 592.533 258.437C599.433 255.937 607.133 253.237 610.333 251.837C610.933 250.337 611.033 249.937 611.033 248.837C611.033 244.237 607.433 240.737 603.433 237.837C601.533 236.437 597.533 234.037 592.833 232.637C588.933 231.437 585.733 231.037 582.933 231.237C578.333 231.537 569.933 232.337 565.233 235.637C561.333 238.337 557.633 241.537 557.533 246.737C557.433 250.837 559.933 254.137 562.033 256.337C563.033 257.237 567.033 259.237 570.633 259.237C572.733 259.237 576.633 258.037 580.233 256.437C584.333 254.537 588.133 252.137 588.133 250.737C588.133 248.537 585.233 248.937 583.233 248.437C580.633 247.837 578.533 248.937 576.333 248.637C575.433 248.537 575.333 247.637 575.333 247.037C575.333 245.637 580.833 244.737 584.133 245.437C587.633 246.237 591.433 246.737 591.633 250.337C591.833 253.337 587.633 256.137 582.533 258.637C578.733 260.537 573.933 262.237 570.533 262.237C565.333 262.337 560.133 260.137 558.133 257.537C555.333 253.837 553.633 251.037 553.733 246.537C553.833 240.037 557.833 236.137 563.233 232.837C568.333 229.937 576.533 227.837 582.433 227.637C586.233 227.537 590.133 228.137 594.833 229.437C598.433 230.437 604.333 233.037 608.233 236.637C610.533 238.637 612.733 240.637 614.133 243.637C614.933 244.937 615.133 246.537 615.433 248.137C619.733 245.237 622.433 242.437 627.033 238.837C634.433 233.237 644.033 225.037 646.233 225.037C648.533 225.037 649.333 226.437 649.333 228.137ZM611.033 258.537C607.433 261.237 597.533 269.437 589.233 275.437C579.733 282.137 567.833 289.337 562.733 292.237C565.133 293.537 570.633 295.737 575.833 295.437C585.933 294.837 593.433 286.837 600.633 278.937C604.733 274.337 608.633 268.337 610.133 262.837C610.533 261.437 610.933 259.937 611.033 258.537ZM556.433 291.437C555.433 290.237 554.633 289.137 553.233 288.037C551.933 286.837 549.633 285.537 547.833 285.537C545.933 285.637 543.633 287.437 543.733 288.837C543.733 289.537 544.133 290.037 545.833 291.237C546.833 292.137 548.333 292.937 550.033 293.037C551.733 293.137 554.433 292.437 556.433 291.437ZM685.978 281.537C686.278 282.937 678.178 289.037 672.278 292.337C667.778 294.837 663.378 297.237 660.078 297.337C655.078 297.437 652.778 294.937 651.578 292.537C650.778 290.837 650.378 289.237 650.378 288.337C648.578 289.737 636.678 296.837 630.278 297.137C626.778 297.337 624.778 295.637 624.878 292.937C624.978 289.937 629.678 281.337 632.378 278.837C630.578 279.837 628.378 280.837 625.878 282.137C622.678 283.837 619.778 286.637 617.678 286.537C616.678 286.437 615.978 285.637 616.078 284.737C616.378 282.637 623.878 278.737 627.678 277.137C630.878 275.937 635.678 272.437 638.078 272.137C639.378 271.937 641.078 273.137 641.078 274.337C641.078 276.737 638.678 278.037 635.678 281.337C634.078 283.137 630.078 288.737 629.678 291.137C629.578 291.937 628.978 292.937 630.378 293.037C634.878 293.237 643.778 288.437 648.178 285.137C650.578 283.337 653.378 280.937 655.178 278.937C657.778 276.037 659.778 272.837 660.978 272.937C663.078 273.037 664.078 274.037 664.278 276.137C664.378 277.537 660.778 280.037 658.978 282.737C657.378 285.037 655.378 287.437 655.278 289.137C655.178 291.137 656.678 293.537 659.678 293.537C661.078 293.537 665.878 291.537 669.078 289.737C674.878 286.437 683.078 280.437 683.978 279.937C685.278 279.237 685.678 280.337 685.978 281.537ZM724.594 282.337C724.494 283.337 715.894 289.937 712.994 291.937C710.394 293.737 707.294 295.937 705.794 297.137C703.894 303.037 701.094 314.537 697.994 322.337C696.094 327.237 691.894 333.837 687.594 337.737C681.794 342.937 674.194 346.237 668.994 345.937C663.294 345.637 658.394 341.537 658.494 335.737C658.594 328.437 670.394 318.137 680.794 309.937C688.094 304.137 699.094 297.637 701.594 295.937C702.394 294.737 703.594 290.837 703.594 289.537C703.594 286.037 701.394 284.337 697.594 284.337C696.294 284.337 695.494 285.937 694.394 285.537C693.594 285.237 692.694 284.537 692.794 283.537C692.894 282.337 698.094 277.537 700.594 274.537C702.694 272.037 705.494 268.837 705.594 267.937C705.694 266.937 705.594 266.537 703.994 266.537C703.394 266.537 699.794 267.237 696.794 268.337C694.094 269.437 691.994 271.837 690.994 271.537C689.794 271.137 689.394 270.637 689.394 269.737C689.394 268.337 692.494 266.437 696.194 264.937C699.494 263.637 705.294 263.037 707.394 262.937C709.294 262.837 709.994 263.737 710.194 265.737C710.394 267.937 708.194 270.537 705.394 274.137C703.094 277.037 701.894 278.637 700.394 280.537C702.194 280.937 706.894 282.037 707.394 286.937C707.494 288.137 707.394 289.337 707.194 291.137C707.794 291.137 711.294 288.737 714.994 286.137C718.594 283.537 722.294 280.737 723.394 280.737C724.194 280.737 724.594 281.537 724.594 282.337ZM700.994 300.537C698.294 302.537 690.194 306.837 683.994 311.937C674.094 320.137 661.794 329.537 662.394 336.937C662.694 340.537 666.694 342.337 669.594 342.537C674.694 342.837 681.094 338.437 684.394 335.737C688.194 332.637 691.294 329.237 695.394 318.937C697.294 314.037 699.194 307.337 700.994 300.537ZM784.546 282.737C784.546 283.537 776.446 288.837 770.046 293.137C764.246 297.037 756.746 300.137 752.746 300.137C750.746 300.137 747.346 298.637 746.546 295.737C746.246 294.637 746.146 292.137 746.446 290.337C744.346 291.737 740.846 293.837 738.646 294.937C734.746 296.937 729.946 298.137 728.146 298.137C726.346 298.137 722.146 297.137 722.146 291.937C722.146 288.337 726.446 282.137 731.246 277.037C735.846 271.937 742.446 266.237 745.346 266.337C748.446 266.437 751.846 268.537 753.746 271.137C755.246 273.037 755.546 275.237 755.846 276.237C758.846 274.437 757.446 273.337 759.146 273.537C760.546 273.637 762.146 274.637 761.946 275.937C761.746 277.037 759.946 279.537 757.446 282.237C755.846 284.037 754.146 285.937 752.446 287.437C751.046 290.737 750.046 291.437 750.346 293.537C750.546 295.037 751.546 296.137 753.346 296.137C755.546 296.137 760.446 294.437 767.846 290.137C772.846 287.237 781.746 280.637 783.146 280.537C784.346 280.437 784.546 281.637 784.546 282.737ZM751.946 276.737C751.946 274.837 748.646 270.237 745.946 270.337C743.646 270.437 737.746 275.537 733.746 279.937C730.246 283.837 725.946 290.437 726.146 291.937C726.446 293.837 727.146 294.137 729.146 294.337C730.346 294.437 734.246 292.837 737.446 291.137C743.646 287.937 749.346 283.637 751.746 280.437C751.746 279.437 751.946 278.237 751.946 276.737ZM839.043 239.137C839.043 241.937 835.743 246.737 832.543 250.737C829.643 254.337 825.143 258.737 823.843 258.937C822.943 258.937 821.943 257.937 821.943 257.037C822.043 255.737 827.643 251.537 830.343 247.537C832.443 244.437 835.043 241.937 835.043 239.037C835.043 236.337 829.743 235.637 827.143 235.637C824.643 235.637 817.543 237.037 811.643 238.937C804.543 241.137 795.343 246.737 794.243 246.837C793.443 246.937 792.643 246.237 792.643 245.137C792.643 243.137 802.343 238.437 809.443 235.637C816.443 233.037 825.643 231.637 828.043 231.637C832.943 231.637 839.043 233.937 839.043 239.137ZM840.943 281.737C841.043 283.237 836.343 286.237 833.443 287.937C829.243 290.337 822.643 293.837 817.243 293.837C814.843 293.837 811.743 291.337 811.143 288.837C810.943 287.837 811.143 285.937 811.343 284.637C809.043 286.337 806.143 288.337 804.043 289.837C799.343 292.837 790.643 298.637 788.243 298.437C786.043 298.237 783.943 296.237 784.243 294.137C784.543 292.037 787.143 286.937 788.443 284.737C784.843 286.937 782.543 288.937 780.843 288.837C780.343 288.437 779.743 287.937 779.743 287.337C779.743 284.437 781.843 285.337 791.243 278.537C794.143 276.437 796.743 273.437 798.443 273.437C799.643 273.437 800.743 274.137 800.743 275.337C800.643 277.637 796.043 281.337 793.843 284.137C792.443 286.037 788.743 291.337 788.743 293.137C788.743 293.637 788.743 294.137 789.243 294.237C791.543 294.537 797.743 289.337 803.043 285.937C808.643 282.337 815.743 276.237 817.243 276.237C819.243 276.237 819.143 277.237 819.143 278.337C819.143 279.737 817.643 280.837 816.543 282.637C815.543 284.437 815.143 286.637 815.143 287.337C815.143 288.637 816.443 289.937 817.843 290.037C821.143 290.337 825.443 288.137 829.943 285.837C834.443 283.537 838.443 280.837 839.643 280.837C840.443 280.837 840.843 280.837 840.943 281.737ZM899.917 281.937C900.117 283.337 891.917 289.937 888.117 292.537C883.517 295.737 878.917 297.337 875.917 297.337C869.717 297.337 868.317 292.837 868.317 288.937C868.417 285.637 869.517 283.037 869.917 281.937C868.117 281.937 865.717 281.537 864.117 281.537C861.717 281.537 858.017 282.037 856.517 281.937C855.217 283.537 854.017 285.537 852.117 287.937C850.117 290.637 845.417 297.637 842.917 297.337C842.317 297.237 841.517 297.537 841.317 296.937C840.417 294.737 844.217 291.037 845.917 288.737C847.617 286.437 850.317 282.437 851.217 279.937C847.817 281.737 841.017 287.737 838.517 287.937C837.917 287.937 837.417 287.137 837.317 286.537C836.817 283.537 842.917 282.137 849.517 276.337C852.117 274.037 856.317 269.637 859.617 270.037C860.617 270.137 861.117 271.137 861.317 272.137C861.717 274.037 860.417 276.337 859.417 277.937C861.717 278.237 862.517 277.937 865.017 277.937C866.517 277.937 869.517 278.637 870.817 278.337C871.917 277.237 873.217 275.537 874.317 274.137C875.717 272.437 878.117 269.337 880.117 269.337C881.317 269.337 883.017 269.637 882.717 270.937C882.217 273.037 880.417 274.937 879.317 276.737C875.917 282.337 872.917 285.137 872.917 288.937C872.917 292.337 874.117 293.537 877.117 293.537C878.817 293.537 882.117 292.537 885.717 290.137C889.117 287.837 897.317 280.737 898.317 280.537C899.317 280.337 899.817 280.937 899.917 281.937ZM932.302 281.537C932.202 283.637 923.502 288.737 918.902 291.937C914.102 295.237 907.702 297.937 904.902 298.337C902.102 298.737 898.302 295.637 898.302 292.737C898.302 289.037 901.602 281.237 905.302 276.137C909.002 271.037 912.002 269.137 914.502 269.137C917.502 269.137 919.802 273.037 919.702 275.937C919.502 280.537 915.502 283.637 911.702 285.737C908.602 287.437 905.402 288.337 903.102 288.937C902.402 290.237 902.302 291.037 902.302 292.337C902.302 293.837 904.302 294.237 905.502 294.337C906.902 294.437 910.002 293.037 915.702 289.737C921.902 286.137 929.702 280.137 930.902 280.137C931.502 280.137 932.402 280.037 932.302 281.537ZM915.702 275.737C915.702 274.837 915.002 273.537 913.902 273.537C912.702 273.537 910.202 275.837 908.702 278.337C907.702 279.937 905.502 283.737 904.902 284.737C906.702 284.437 910.002 283.537 912.302 281.337C914.102 279.637 915.702 278.837 915.702 275.737ZM987.381 281.337C987.281 283.937 981.881 287.037 977.181 290.137C970.581 294.437 964.881 297.837 959.381 297.937C956.881 297.937 955.181 295.237 955.381 292.737C955.581 290.237 959.081 286.137 961.381 283.537C962.581 282.137 965.581 279.937 966.381 277.337C963.381 279.037 960.081 280.037 955.981 281.937C950.781 284.837 942.381 288.237 939.181 289.337C935.881 293.037 920.781 310.637 908.381 323.537C897.381 335.037 879.581 356.637 877.181 356.537C876.581 356.537 875.681 356.237 875.581 355.537C875.381 352.737 894.181 334.237 906.181 320.737C913.181 312.937 915.781 310.337 924.181 300.737C930.081 294.037 939.681 282.937 942.181 279.937C940.281 280.737 940.681 280.737 938.381 281.937C935.881 283.337 934.281 285.937 932.781 285.737C931.881 285.637 931.281 284.837 930.781 283.937C930.181 282.737 936.081 279.237 940.581 276.737C944.781 274.437 946.781 272.737 949.981 270.937C952.181 269.137 953.781 268.137 955.081 268.437C956.081 268.637 956.581 269.037 956.581 269.937C956.581 271.237 953.381 273.437 951.381 275.737C948.981 278.437 946.281 281.537 945.381 282.737C947.981 282.137 950.181 281.337 957.981 277.337C961.881 275.237 970.781 271.737 972.581 271.737C973.381 271.737 973.681 272.837 973.581 273.737C973.281 275.737 970.881 278.837 966.181 283.537C964.181 285.637 959.281 290.737 959.381 292.737C959.481 293.737 959.781 294.337 960.781 294.337C962.881 294.337 969.981 290.837 975.381 287.337C979.481 284.637 984.581 280.637 985.781 280.537C986.481 280.437 987.381 280.637 987.381 281.337Z" fill="#3A4548"/>
</g>
<defs>
<filter id="filter0_ddd_368_130" x="314.621" y="159.481" width="841.285" height="370.356" filterUnits="userSpaceOnUse" color-interpolation-filters="sRGB">
<feFlood flood-opacity="0" result="BackgroundImageFix"/>
<feColorMatrix in="SourceAlpha" type="matrix" values="0 0 0 0 0 0 0 0 0 0 0 0 0 0 0 0 0 0 127 0" result="hardAlpha"/>
<feOffset dy="19"/>
<feGaussianBlur stdDeviation="20.5"/>
<feColorMatrix type="matrix" values="0 0 0 0 0 0 0 0 0 0 0 0 0 0 0 0 0 0 0.01 0"/>
<feBlend mode="normal" in2="BackgroundImageFix" result="effect1_dropShadow_368_130"/>
<feColorMatrix in="SourceAlpha" type="matrix" values="0 0 0 0 0 0 0 0 0 0 0 0 0 0 0 0 0 0 127 0" result="hardAlpha"/>
<feOffset dy="74"/>
<feGaussianBlur stdDeviation="37"/>
<feColorMatrix type="matrix" values="0 0 0 0 0 0 0 0 0 0 0 0 0 0 0 0 0 0 0.01 0"/>
<feBlend mode="normal" in2="effect1_dropShadow_368_130" result="effect2_dropShadow_368_130"/>
<feColorMatrix in="SourceAlpha" type="matrix" values="0 0 0 0 0 0 0 0 0 0 0 0 0 0 0 0 0 0 127 0" result="hardAlpha"/>
<feOffset dy="167"/>
<feGaussianBlur stdDeviation="50"/>
<feColorMatrix type="matrix" values="0 0 0 0 0 0 0 0 0 0 0 0 0 0 0 0 0 0 0.01 0"/>
<feBlend mode="normal" in2="effect2_dropShadow_368_130" result="effect3_dropShadow_368_130"/>
<feBlend mode="normal" in="SourceGraphic" in2="effect3_dropShadow_368_130" result="shape"/>
</filter>
<linearGradient id="paint0_linear_368_130" x1="923.447" y1="77.0761" x2="1404.82" y2="52.0387" gradientUnits="userSpaceOnUse">
<stop stop-color="#3A4548"/>
<stop offset="1" stop-color="#AAB3B5"/>
</linearGradient>
<clipPath id="clip0_368_130">
<rect width="1920" height="577" fill="white"/>
</clipPath>
</defs>
</svg>
